<?xml version="1.0" encoding="UTF-8" standalone="no"?>
<!DOCTYPE svg PUBLIC "-//W3C//DTD SVG 1.1//EN"
 "http://www.w3.org/Graphics/SVG/1.1/DTD/svg11.dtd">
<!-- Generated by graphviz version 2.40.1 (20161225.0304)
 -->
<!-- Title: %3 Pages: 1 -->
<svg width="1217pt" height="857pt"
 viewBox="0.00 0.00 1217.29 857.13" xmlns="http://www.w3.org/2000/svg" xmlns:xlink="http://www.w3.org/1999/xlink">
<g id="graph0" class="graph" transform="scale(1 1) rotate(0) translate(4 853.127)">
<title>%3</title>
<polygon fill="#ffffff" stroke="transparent" points="-4,4 -4,-853.127 1213.2895,-853.127 1213.2895,4 -4,4"/>
<!-- s3_project46 -->
<g id="node1" class="node">
<title>s3_project46</title>
<polygon fill="#333333" stroke="#000000" points="169.9464,-849.127 49.9464,-849.127 49.9464,-813.127 169.9464,-813.127 169.9464,-849.127"/>
<text text-anchor="middle" x="109.9464" y="-827.427" font-family="Times,serif" font-size="14.00" fill="#cccccc">Space Exploration </text>
</g>
<!-- project130 -->
<g id="node15" class="node">
<title>project130</title>
<polygon fill="#8fbc8f" stroke="#000000" points="157.9464,-696.2569 35.9464,-696.2569 35.9464,-660.2569 157.9464,-660.2569 157.9464,-696.2569"/>
<text text-anchor="middle" x="96.9464" y="-674.5569" font-family="Times,serif" font-size="14.00" fill="#000000">Reboot the Swarm </text>
</g>
<!-- s3_project46&#45;&gt;project130 -->
<g id="edge11" class="edge">
<title>s3_project46&#45;&gt;project130</title>
<path fill="none" stroke="#000000" d="M108.404,-812.9905C106.166,-786.6723 101.9972,-737.651 99.3528,-706.5548"/>
<polygon fill="#000000" stroke="#000000" points="102.8215,-706.0373 98.4867,-696.3698 95.8467,-706.6305 102.8215,-706.0373"/>
</g>
<!-- s3_100k_ops -->
<g id="node2" class="node">
<title>s3_100k_ops</title>
<ellipse fill="none" stroke="#000000" cx="216.9464" cy="-759.127" rx="53.8905" ry="18"/>
<text text-anchor="middle" x="216.9464" y="-755.427" font-family="Times,serif" font-size="14.00" fill="#000000">100,000 ops</text>
</g>
<!-- 125,000 ops -->
<g id="node8" class="node">
<title>125,000 ops</title>
<ellipse fill="none" stroke="#000000" cx="229.9464" cy="-678.2569" rx="53.8905" ry="18"/>
<text text-anchor="middle" x="229.9464" y="-674.5569" font-family="Times,serif" font-size="14.00" fill="#000000">125,000 ops</text>
</g>
<!-- s3_100k_ops&#45;&gt;125,000 ops -->
<g id="edge5" class="edge">
<title>s3_100k_ops&#45;&gt;125,000 ops</title>
<path fill="none" stroke="#000000" d="M219.8963,-740.7763C221.5366,-730.572 223.6121,-717.6608 225.4505,-706.2245"/>
<polygon fill="#000000" stroke="#000000" points="228.9213,-706.6852 227.0529,-696.2564 222.0101,-705.5741 228.9213,-706.6852"/>
</g>
<!-- s3_100k_ops&#45;&gt;project130 -->
<g id="edge12" class="edge">
<title>s3_100k_ops&#45;&gt;project130</title>
<path fill="none" stroke="#000000" d="M192.951,-742.9561C175.5537,-731.2317 151.7477,-715.1885 132.1944,-702.0112"/>
<polygon fill="#000000" stroke="#000000" points="134.0763,-699.0589 123.8277,-696.3727 130.1643,-704.8637 134.0763,-699.0589"/>
</g>
<!-- s3_25k_creat -->
<g id="node3" class="node">
<title>s3_25k_creat</title>
<ellipse fill="#9370db" stroke="#000000" cx="981.9464" cy="-759.127" rx="54.6905" ry="18"/>
<text text-anchor="middle" x="981.9464" y="-755.427" font-family="Times,serif" font-size="14.00" fill="#000000">25,000 creat</text>
</g>
<!-- s3_50k_creat -->
<g id="node4" class="node">
<title>s3_50k_creat</title>
<ellipse fill="#9370db" stroke="#000000" cx="981.9464" cy="-678.2569" rx="54.6905" ry="18"/>
<text text-anchor="middle" x="981.9464" y="-674.5569" font-family="Times,serif" font-size="14.00" fill="#000000">50,000 creat</text>
</g>
<!-- s3_25k_creat&#45;&gt;s3_50k_creat -->
<g id="edge1" class="edge">
<title>s3_25k_creat&#45;&gt;s3_50k_creat</title>
<path fill="none" stroke="#000000" d="M981.9464,-740.7763C981.9464,-730.7468 981.9464,-718.1023 981.9464,-706.8134"/>
<polygon fill="#000000" stroke="#000000" points="985.4465,-706.5349 981.9464,-696.535 978.4465,-706.535 985.4465,-706.5349"/>
</g>
<!-- s3_project119 -->
<g id="node6" class="node">
<title>s3_project119</title>
<polygon fill="#b2dfee" stroke="#000000" points="1188.4464,-704.7569 1061.4464,-704.7569 1061.4464,-651.7569 1188.4464,-651.7569 1188.4464,-704.7569"/>
<text text-anchor="middle" x="1124.9464" y="-689.5569" font-family="Times,serif" font-size="14.00" fill="#000000">Theory of Mind</text>
<text text-anchor="middle" x="1124.9464" y="-674.5569" font-family="Times,serif" font-size="14.00" fill="#000000">(Double tournament</text>
<text text-anchor="middle" x="1124.9464" y="-659.5569" font-family="Times,serif" font-size="14.00" fill="#000000"> cost and reward)</text>
</g>
<!-- s3_25k_creat&#45;&gt;s3_project119 -->
<g id="edge2" class="edge">
<title>s3_25k_creat&#45;&gt;s3_project119</title>
<path fill="none" stroke="#000000" d="M1009.5182,-743.5344C1026.4151,-733.9788 1048.6559,-721.4011 1069.1008,-709.839"/>
<polygon fill="#000000" stroke="#000000" points="1071.0546,-712.755 1078.0362,-704.7858 1067.6088,-706.6619 1071.0546,-712.755"/>
</g>
<!-- s3_project118 -->
<g id="node7" class="node">
<title>s3_project118</title>
<polygon fill="#b2dfee" stroke="#000000" points="1028.4464,-595.9102 935.4464,-595.9102 935.4464,-559.9102 1028.4464,-559.9102 1028.4464,-595.9102"/>
<text text-anchor="middle" x="981.9464" y="-574.2102" font-family="Times,serif" font-size="14.00" fill="#000000">AutoTourney </text>
</g>
<!-- s3_50k_creat&#45;&gt;s3_project118 -->
<g id="edge4" class="edge">
<title>s3_50k_creat&#45;&gt;s3_project118</title>
<path fill="none" stroke="#000000" d="M981.9464,-659.8518C981.9464,-644.8579 981.9464,-623.434 981.9464,-606.2527"/>
<polygon fill="#000000" stroke="#000000" points="985.4465,-606.1986 981.9464,-596.1987 978.4465,-606.1987 985.4465,-606.1986"/>
</g>
<!-- s3_all_strats -->
<g id="node5" class="node">
<title>s3_all_strats</title>
<ellipse fill="#b2dfee" stroke="#000000" cx="1131.9464" cy="-759.127" rx="77.1866" ry="18"/>
<text text-anchor="middle" x="1131.9464" y="-755.427" font-family="Times,serif" font-size="14.00" fill="#000000">All strats unlocked</text>
</g>
<!-- s3_all_strats&#45;&gt;s3_project119 -->
<g id="edge3" class="edge">
<title>s3_all_strats&#45;&gt;s3_project119</title>
<path fill="none" stroke="#000000" d="M1130.358,-740.7763C1129.6969,-733.1395 1128.9047,-723.9865 1128.1329,-715.0703"/>
<polygon fill="#000000" stroke="#000000" points="1131.5948,-714.4782 1127.2454,-704.8173 1124.6209,-715.0819 1131.5948,-714.4782"/>
</g>
<!-- 150,000 ops -->
<g id="node9" class="node">
<title>150,000 ops</title>
<ellipse fill="none" stroke="#000000" cx="228.9464" cy="-577.9102" rx="53.8905" ry="18"/>
<text text-anchor="middle" x="228.9464" y="-574.2102" font-family="Times,serif" font-size="14.00" fill="#000000">150,000 ops</text>
</g>
<!-- 125,000 ops&#45;&gt;150,000 ops -->
<g id="edge6" class="edge">
<title>125,000 ops&#45;&gt;150,000 ops</title>
<path fill="none" stroke="#000000" d="M229.763,-659.8518C229.6135,-644.8579 229.4,-623.434 229.2288,-606.2527"/>
<polygon fill="#000000" stroke="#000000" points="232.7282,-606.1633 229.1286,-596.1987 225.7285,-606.2331 232.7282,-606.1633"/>
</g>
<!-- project129 -->
<g id="node34" class="node">
<title>project129</title>
<polygon fill="#333333" stroke="#000000" points="445.4464,-595.9102 300.4464,-595.9102 300.4464,-559.9102 445.4464,-559.9102 445.4464,-595.9102"/>
<text text-anchor="middle" x="372.9464" y="-574.2102" font-family="Times,serif" font-size="14.00" fill="#cccccc">Elliptic Hull Polytopes </text>
</g>
<!-- 125,000 ops&#45;&gt;project129 -->
<g id="edge21" class="edge">
<title>125,000 ops&#45;&gt;project129</title>
<path fill="none" stroke="#000000" d="M253.2401,-661.9112C276.5208,-645.5745 312.5646,-620.2816 339.0209,-601.7166"/>
<polygon fill="#000000" stroke="#000000" points="341.0701,-604.5544 347.2454,-595.9452 337.0492,-598.8244 341.0701,-604.5544"/>
</g>
<!-- 175,000 ops -->
<g id="node10" class="node">
<title>175,000 ops</title>
<ellipse fill="none" stroke="#000000" cx="213.9464" cy="-466.9569" rx="53.8905" ry="18"/>
<text text-anchor="middle" x="213.9464" y="-463.2569" font-family="Times,serif" font-size="14.00" fill="#000000">175,000 ops</text>
</g>
<!-- 150,000 ops&#45;&gt;175,000 ops -->
<g id="edge7" class="edge">
<title>150,000 ops&#45;&gt;175,000 ops</title>
<path fill="none" stroke="#000000" d="M226.4694,-559.5885C224.1136,-542.1625 220.534,-515.6846 217.8043,-495.4938"/>
<polygon fill="#000000" stroke="#000000" points="221.2353,-494.7467 216.427,-485.3058 214.2984,-495.6846 221.2353,-494.7467"/>
</g>
<!-- project131 -->
<g id="node35" class="node">
<title>project131</title>
<polygon fill="#333333" stroke="#000000" points="349.9464,-484.9569 285.9464,-484.9569 285.9464,-448.9569 349.9464,-448.9569 349.9464,-484.9569"/>
<text text-anchor="middle" x="317.9464" y="-463.2569" font-family="Times,serif" font-size="14.00" fill="#cccccc">Combat </text>
</g>
<!-- 150,000 ops&#45;&gt;project131 -->
<g id="edge23" class="edge">
<title>150,000 ops&#45;&gt;project131</title>
<path fill="none" stroke="#000000" d="M243.2458,-560.0836C257.7566,-541.9935 280.3795,-513.7903 296.9292,-493.1583"/>
<polygon fill="#000000" stroke="#000000" points="299.8598,-495.0984 303.3868,-485.1078 294.3994,-490.7184 299.8598,-495.0984"/>
</g>
<!-- 200,000 ops -->
<g id="node11" class="node">
<title>200,000 ops</title>
<ellipse fill="none" stroke="#000000" cx="201.9464" cy="-366.9802" rx="53.8905" ry="18"/>
<text text-anchor="middle" x="201.9464" y="-363.2802" font-family="Times,serif" font-size="14.00" fill="#000000">200,000 ops</text>
</g>
<!-- 175,000 ops&#45;&gt;200,000 ops -->
<g id="edge8" class="edge">
<title>175,000 ops&#45;&gt;200,000 ops</title>
<path fill="none" stroke="#000000" d="M211.7454,-448.6196C209.9523,-433.6811 207.3903,-412.3361 205.3357,-395.2182"/>
<polygon fill="#000000" stroke="#000000" points="208.8003,-394.7128 204.1334,-385.2012 201.8502,-395.5471 208.8003,-394.7128"/>
</g>
<!-- project120 -->
<g id="node36" class="node">
<title>project120</title>
<polygon fill="#333333" stroke="#000000" points="386.4464,-393.4802 273.4464,-393.4802 273.4464,-340.4802 386.4464,-340.4802 386.4464,-393.4802"/>
<text text-anchor="middle" x="329.9464" y="-378.2802" font-family="Times,serif" font-size="14.00" fill="#cccccc">The OODA Loop</text>
<text text-anchor="middle" x="329.9464" y="-363.2802" font-family="Times,serif" font-size="14.00" fill="#cccccc">(Use probe speed</text>
<text text-anchor="middle" x="329.9464" y="-348.2802" font-family="Times,serif" font-size="14.00" fill="#cccccc"> for evasion)</text>
</g>
<!-- 175,000 ops&#45;&gt;project120 -->
<g id="edge25" class="edge">
<title>175,000 ops&#45;&gt;project120</title>
<path fill="none" stroke="#000000" d="M233.6242,-449.9972C249.3043,-436.4831 271.748,-417.1395 291.0267,-400.5238"/>
<polygon fill="#000000" stroke="#000000" points="293.4991,-403.0135 298.789,-393.8338 288.9291,-397.7111 293.4991,-403.0135"/>
</g>
<!-- 250,000 ops -->
<g id="node12" class="node">
<title>250,000 ops</title>
<ellipse fill="none" stroke="#000000" cx="201.9464" cy="-277.9802" rx="53.8905" ry="18"/>
<text text-anchor="middle" x="201.9464" y="-274.2802" font-family="Times,serif" font-size="14.00" fill="#000000">250,000 ops</text>
</g>
<!-- 200,000 ops&#45;&gt;250,000 ops -->
<g id="edge9" class="edge">
<title>200,000 ops&#45;&gt;250,000 ops</title>
<path fill="none" stroke="#000000" d="M201.9464,-348.9698C201.9464,-336.7461 201.9464,-320.3297 201.9464,-306.3627"/>
<polygon fill="#000000" stroke="#000000" points="205.4465,-306.2694 201.9464,-296.2694 198.4465,-306.2694 205.4465,-306.2694"/>
</g>
<!-- project134 -->
<g id="node41" class="node">
<title>project134</title>
<polygon fill="#333333" stroke="#000000" points="431.9464,-304.4802 273.9464,-304.4802 273.9464,-251.4802 431.9464,-251.4802 431.9464,-304.4802"/>
<text text-anchor="middle" x="352.9464" y="-289.2802" font-family="Times,serif" font-size="14.00" fill="#cccccc">Glory</text>
<text text-anchor="middle" x="352.9464" y="-274.2802" font-family="Times,serif" font-size="14.00" fill="#cccccc">(Gain more honor</text>
<text text-anchor="middle" x="352.9464" y="-259.2802" font-family="Times,serif" font-size="14.00" fill="#cccccc"> for consecutive victories)</text>
</g>
<!-- 200,000 ops&#45;&gt;project134 -->
<g id="edge43" class="edge">
<title>200,000 ops&#45;&gt;project134</title>
<path fill="none" stroke="#000000" d="M228.5945,-351.2737C248.1247,-339.7626 275.2976,-323.7467 299.2626,-309.6217"/>
<polygon fill="#000000" stroke="#000000" points="301.0888,-312.608 307.9266,-304.5151 297.5344,-306.5776 301.0888,-312.608"/>
</g>
<!-- 300,000 ops -->
<g id="node13" class="node">
<title>300,000 ops</title>
<ellipse fill="none" stroke="#000000" cx="415.9464" cy="-98.8701" rx="53.8905" ry="18"/>
<text text-anchor="middle" x="415.9464" y="-95.1701" font-family="Times,serif" font-size="14.00" fill="#000000">300,000 ops</text>
</g>
<!-- 250,000 ops&#45;&gt;300,000 ops -->
<g id="edge10" class="edge">
<title>250,000 ops&#45;&gt;300,000 ops</title>
<path fill="none" stroke="#000000" d="M222.079,-261.13C260.4758,-228.9933 344.2368,-158.8883 388.0211,-122.2425"/>
<polygon fill="#000000" stroke="#000000" points="390.2892,-124.9083 395.7114,-115.806 385.7964,-119.5403 390.2892,-124.9083"/>
</g>
<!-- project132 -->
<g id="node38" class="node">
<title>project132</title>
<polygon fill="#333333" stroke="#000000" points="644.9464,-207.6102 444.9464,-207.6102 444.9464,-169.6102 644.9464,-169.6102 644.9464,-207.6102"/>
<text text-anchor="middle" x="544.9464" y="-192.4102" font-family="Times,serif" font-size="14.00" fill="#cccccc">Monument to the Driftwar Fallen</text>
<text text-anchor="middle" x="544.9464" y="-177.4102" font-family="Times,serif" font-size="14.00" fill="#cccccc">(+50,000 honor)</text>
</g>
<!-- 250,000 ops&#45;&gt;project132 -->
<g id="edge31" class="edge">
<title>250,000 ops&#45;&gt;project132</title>
<path fill="none" stroke="#000000" d="M233.5834,-263.3817C243.4878,-259.1631 254.5487,-254.8054 264.9464,-251.4802 320.0036,-233.873 382.668,-219.3118 434.7355,-208.6522"/>
<polygon fill="#000000" stroke="#000000" points="435.5599,-212.0563 444.6656,-206.64 434.1697,-205.1958 435.5599,-212.0563"/>
</g>
<!-- project200 -->
<g id="node43" class="node">
<title>project200</title>
<polygon fill="#333333" stroke="#000000" points="555.4464,-36 400.4464,-36 400.4464,0 555.4464,0 555.4464,-36"/>
<text text-anchor="middle" x="477.9464" y="-14.3" font-family="Times,serif" font-size="14.00" fill="#cccccc">The Universe Next Door </text>
</g>
<!-- 300,000 ops&#45;&gt;project200 -->
<g id="edge46" class="edge">
<title>300,000 ops&#45;&gt;project200</title>
<path fill="none" stroke="#000000" d="M429.3994,-81.3225C437.7333,-70.4522 448.5898,-56.2914 457.9224,-44.1184"/>
<polygon fill="#000000" stroke="#000000" points="460.7836,-46.1389 464.0902,-36.0733 455.2283,-41.8799 460.7836,-46.1389"/>
</g>
<!-- 2 drones -->
<g id="node14" class="node">
<title>2 drones</title>
<ellipse fill="#8fbc8f" stroke="#000000" cx="40.9464" cy="-759.127" rx="40.8928" ry="18"/>
<text text-anchor="middle" x="40.9464" y="-755.427" font-family="Times,serif" font-size="14.00" fill="#000000">2 drones</text>
</g>
<!-- 2 drones&#45;&gt;project130 -->
<g id="edge13" class="edge">
<title>2 drones&#45;&gt;project130</title>
<path fill="none" stroke="#000000" d="M53.0975,-741.5794C60.5525,-730.8136 70.2424,-716.8203 78.6167,-704.727"/>
<polygon fill="#000000" stroke="#000000" points="81.6156,-706.5441 84.4312,-696.3302 75.8607,-702.559 81.6156,-706.5441"/>
</g>
<!-- project218 -->
<g id="node16" class="node">
<title>project218</title>
<polygon fill="#9370db" stroke="#000000" points="1106.9464,-206.6102 996.9464,-206.6102 996.9464,-170.6102 1106.9464,-170.6102 1106.9464,-206.6102"/>
<text text-anchor="middle" x="1051.9464" y="-184.9102" font-family="Times,serif" font-size="14.00" fill="#000000">Limerick (cont.) </text>
</g>
<!-- 175,000 creat -->
<g id="node17" class="node">
<title>175,000 creat</title>
<ellipse fill="#9370db" stroke="#000000" cx="696.9464" cy="-577.9102" rx="59.2899" ry="18"/>
<text text-anchor="middle" x="696.9464" y="-574.2102" font-family="Times,serif" font-size="14.00" fill="#000000">175,000 creat</text>
</g>
<!-- 225,000 creat -->
<g id="node18" class="node">
<title>225,000 creat</title>
<ellipse fill="#9370db" stroke="#000000" cx="696.9464" cy="-466.9569" rx="59.2899" ry="18"/>
<text text-anchor="middle" x="696.9464" y="-463.2569" font-family="Times,serif" font-size="14.00" fill="#000000">225,000 creat</text>
</g>
<!-- 175,000 creat&#45;&gt;225,000 creat -->
<g id="edge14" class="edge">
<title>175,000 creat&#45;&gt;225,000 creat</title>
<path fill="none" stroke="#000000" d="M696.9464,-559.5885C696.9464,-542.1625 696.9464,-515.6846 696.9464,-495.4938"/>
<polygon fill="#000000" stroke="#000000" points="700.4465,-495.3058 696.9464,-485.3058 693.4465,-495.3058 700.4465,-495.3058"/>
</g>
<!-- project128 -->
<g id="node29" class="node">
<title>project128</title>
<polygon fill="#b2dfee" stroke="#000000" points="908.9464,-493.4569 776.9464,-493.4569 776.9464,-440.4569 908.9464,-440.4569 908.9464,-493.4569"/>
<text text-anchor="middle" x="842.9464" y="-478.2569" font-family="Times,serif" font-size="14.00" fill="#000000">Strategic Attachment</text>
<text text-anchor="middle" x="842.9464" y="-463.2569" font-family="Times,serif" font-size="14.00" fill="#000000"> (Gain bonus yomi</text>
<text text-anchor="middle" x="842.9464" y="-448.2569" font-family="Times,serif" font-size="14.00" fill="#000000"> for winning strats)</text>
</g>
<!-- 175,000 creat&#45;&gt;project128 -->
<g id="edge18" class="edge">
<title>175,000 creat&#45;&gt;project128</title>
<path fill="none" stroke="#000000" d="M719.1206,-561.0588C740.5193,-544.7967 773.4853,-519.7441 800.0239,-499.576"/>
<polygon fill="#000000" stroke="#000000" points="802.1896,-502.3262 808.0337,-493.4889 797.9542,-496.7529 802.1896,-502.3262"/>
</g>
<!-- 300,000 creat -->
<g id="node19" class="node">
<title>300,000 creat</title>
<ellipse fill="#9370db" stroke="#000000" cx="1051.9464" cy="-366.9802" rx="59.2899" ry="18"/>
<text text-anchor="middle" x="1051.9464" y="-363.2802" font-family="Times,serif" font-size="14.00" fill="#000000">300,000 creat</text>
</g>
<!-- 225,000 creat&#45;&gt;300,000 creat -->
<g id="edge15" class="edge">
<title>225,000 creat&#45;&gt;300,000 creat</title>
<path fill="none" stroke="#000000" d="M723.053,-450.729C736.1101,-443.2576 752.4088,-434.8738 767.9464,-429.4802 851.204,-400.579 877.2576,-414.0847 962.9464,-393.4802 975.4386,-390.4764 988.7782,-386.7746 1001.227,-383.1005"/>
<polygon fill="#000000" stroke="#000000" points="1002.4133,-386.3988 1010.9865,-380.1737 1000.4025,-379.6938 1002.4133,-386.3988"/>
</g>
<!-- project121 -->
<g id="node37" class="node">
<title>project121</title>
<polygon fill="#333333" stroke="#000000" points="670.4464,-385.9802 533.4464,-385.9802 533.4464,-347.9802 670.4464,-347.9802 670.4464,-385.9802"/>
<text text-anchor="middle" x="601.9464" y="-370.7802" font-family="Times,serif" font-size="14.00" fill="#cccccc">Name the battles</text>
<text text-anchor="middle" x="601.9464" y="-355.7802" font-family="Times,serif" font-size="14.00" fill="#cccccc">(Begin gaining honor)</text>
</g>
<!-- 225,000 creat&#45;&gt;project121 -->
<g id="edge29" class="edge">
<title>225,000 creat&#45;&gt;project121</title>
<path fill="none" stroke="#000000" d="M680.3986,-449.5423C665.6998,-434.0734 643.9968,-411.2336 627.1416,-393.4953"/>
<polygon fill="#000000" stroke="#000000" points="629.6749,-391.0802 620.2493,-386.2419 624.6004,-395.9021 629.6749,-391.0802"/>
</g>
<!-- 1,000,000 creat -->
<g id="node20" class="node">
<title>1,000,000 creat</title>
<ellipse fill="#9370db" stroke="#000000" cx="1051.9464" cy="-277.9802" rx="65.7887" ry="18"/>
<text text-anchor="middle" x="1051.9464" y="-274.2802" font-family="Times,serif" font-size="14.00" fill="#000000">1,000,000 creat</text>
</g>
<!-- 300,000 creat&#45;&gt;1,000,000 creat -->
<g id="edge16" class="edge">
<title>300,000 creat&#45;&gt;1,000,000 creat</title>
<path fill="none" stroke="#000000" d="M1051.9464,-348.9698C1051.9464,-336.7461 1051.9464,-320.3297 1051.9464,-306.3627"/>
<polygon fill="#000000" stroke="#000000" points="1055.4465,-306.2694 1051.9464,-296.2694 1048.4465,-306.2694 1055.4465,-306.2694"/>
</g>
<!-- project201 -->
<g id="node44" class="node">
<title>project201</title>
<polygon fill="#333333" stroke="#000000" points="992.9464,-36 856.9464,-36 856.9464,0 992.9464,0 992.9464,-36"/>
<text text-anchor="middle" x="924.9464" y="-14.3" font-family="Times,serif" font-size="14.00" fill="#cccccc">The Universe Within </text>
</g>
<!-- 300,000 creat&#45;&gt;project201 -->
<g id="edge48" class="edge">
<title>300,000 creat&#45;&gt;project201</title>
<path fill="none" stroke="#000000" d="M1081.3921,-351.2106C1098.1101,-340.4823 1117.5286,-324.5876 1126.9464,-304.4802 1138.5325,-279.7433 1118.1784,-165.6043 1115.9464,-161.7401 1083.4177,-105.4265 1019.1451,-64.1958 974.1794,-40.6833"/>
<polygon fill="#000000" stroke="#000000" points="975.6741,-37.5166 965.1775,-36.0769 972.4853,-43.7481 975.6741,-37.5166"/>
</g>
<!-- 1,000,000 creat&#45;&gt;project218 -->
<g id="edge17" class="edge">
<title>1,000,000 creat&#45;&gt;project218</title>
<path fill="none" stroke="#000000" d="M1051.9464,-259.8949C1051.9464,-247.5391 1051.9464,-230.9172 1051.9464,-216.8323"/>
<polygon fill="#000000" stroke="#000000" points="1055.4465,-216.6686 1051.9464,-206.6686 1048.4465,-216.6687 1055.4465,-216.6686"/>
</g>
<!-- threnody_creat -->
<g id="node21" class="node">
<title>threnody_creat</title>
<ellipse fill="#9370db" stroke="#000000" cx="898.9464" cy="-366.9802" rx="54.6905" ry="18"/>
<text text-anchor="middle" x="898.9464" y="-363.2802" font-family="Times,serif" font-size="14.00" fill="#000000">50,000 creat</text>
</g>
<!-- project133 -->
<g id="node39" class="node">
<title>project133</title>
<polygon fill="#333333" stroke="#000000" points="968.4464,-296.9802 787.4464,-296.9802 787.4464,-258.9802 968.4464,-258.9802 968.4464,-296.9802"/>
<text text-anchor="middle" x="877.9464" y="-281.7802" font-family="Times,serif" font-size="14.00" fill="#cccccc">Threnody for the Heroes of ...</text>
<text text-anchor="middle" x="877.9464" y="-266.7802" font-family="Times,serif" font-size="14.00" fill="#cccccc">(+10,000 honor)</text>
</g>
<!-- threnody_creat&#45;&gt;project133 -->
<g id="edge35" class="edge">
<title>threnody_creat&#45;&gt;project133</title>
<path fill="none" stroke="#000000" d="M894.6967,-348.9698C891.8698,-336.9889 888.0925,-320.9804 884.8404,-307.198"/>
<polygon fill="#000000" stroke="#000000" points="888.1835,-306.125 882.4804,-297.196 881.3705,-307.7326 888.1835,-306.125"/>
</g>
<!-- threnody_creat2 -->
<g id="node22" class="node">
<title>threnody_creat2</title>
<ellipse fill="#9370db" stroke="#000000" cx="755.9464" cy="-188.6102" rx="52.1524" ry="26.7407"/>
<text text-anchor="middle" x="755.9464" y="-192.4102" font-family="Times,serif" font-size="14.00" fill="#000000">prev. creat</text>
<text text-anchor="middle" x="755.9464" y="-177.4102" font-family="Times,serif" font-size="14.00" fill="#000000"> +10,000</text>
</g>
<!-- project133_repeat -->
<g id="node40" class="node">
<title>project133_repeat</title>
<polygon fill="#333333" stroke="#000000" points="908.4464,-117.8701 727.4464,-117.8701 727.4464,-79.8701 908.4464,-79.8701 908.4464,-117.8701"/>
<text text-anchor="middle" x="817.9464" y="-102.6701" font-family="Times,serif" font-size="14.00" fill="#cccccc">Threnody for the Heroes of ...</text>
<text text-anchor="middle" x="817.9464" y="-87.6701" font-family="Times,serif" font-size="14.00" fill="#cccccc">(+10,000 honor)</text>
</g>
<!-- threnody_creat2&#45;&gt;project133_repeat -->
<g id="edge40" class="edge">
<title>threnody_creat2&#45;&gt;project133_repeat</title>
<path fill="none" stroke="#000000" d="M773.5472,-163.1343C781.4211,-151.7375 790.7231,-138.2735 798.7734,-126.6215"/>
<polygon fill="#000000" stroke="#000000" points="801.8364,-128.3453 804.6411,-118.1285 796.0772,-124.3664 801.8364,-128.3453"/>
</g>
<!-- 125,000 creat -->
<g id="node23" class="node">
<title>125,000 creat</title>
<ellipse fill="#9370db" stroke="#000000" cx="508.9464" cy="-277.9802" rx="59.2899" ry="18"/>
<text text-anchor="middle" x="508.9464" y="-274.2802" font-family="Times,serif" font-size="14.00" fill="#000000">125,000 creat</text>
</g>
<!-- 125,000 creat&#45;&gt;project132 -->
<g id="edge32" class="edge">
<title>125,000 creat&#45;&gt;project132</title>
<path fill="none" stroke="#000000" d="M516.2315,-259.8949C521.1252,-247.7463 527.6802,-231.4735 533.2917,-217.543"/>
<polygon fill="#000000" stroke="#000000" points="536.6837,-218.4894 537.1737,-207.9059 530.1907,-215.8738 536.6837,-218.4894"/>
</g>
<!-- 30,000 yomi -->
<g id="node24" class="node">
<title>30,000 yomi</title>
<ellipse fill="#b2dfee" stroke="#000000" cx="459.9464" cy="-366.9802" rx="55.7903" ry="18"/>
<text text-anchor="middle" x="459.9464" y="-363.2802" font-family="Times,serif" font-size="14.00" fill="#000000">30,000 yomi</text>
</g>
<!-- 30,000 yomi&#45;&gt;project134 -->
<g id="edge44" class="edge">
<title>30,000 yomi&#45;&gt;project134</title>
<path fill="none" stroke="#000000" d="M439.5686,-350.0305C426.4535,-339.1217 408.9601,-324.5711 393.1284,-311.4027"/>
<polygon fill="#000000" stroke="#000000" points="394.9592,-308.373 385.0329,-304.669 390.4828,-313.7547 394.9592,-308.373"/>
</g>
<!-- 45,000 yomi -->
<g id="node25" class="node">
<title>45,000 yomi</title>
<ellipse fill="#b2dfee" stroke="#000000" cx="423.9464" cy="-466.9569" rx="55.7903" ry="18"/>
<text text-anchor="middle" x="423.9464" y="-463.2569" font-family="Times,serif" font-size="14.00" fill="#000000">45,000 yomi</text>
</g>
<!-- 45,000 yomi&#45;&gt;project120 -->
<g id="edge26" class="edge">
<title>45,000 yomi&#45;&gt;project120</title>
<path fill="none" stroke="#000000" d="M407.5728,-449.5423C394.9831,-436.1521 377.2006,-417.2389 361.8313,-400.8925"/>
<polygon fill="#000000" stroke="#000000" points="364.3668,-398.4796 354.9669,-393.5916 359.267,-403.2746 364.3668,-398.4796"/>
</g>
<!-- threnody_yomi -->
<g id="node26" class="node">
<title>threnody_yomi</title>
<ellipse fill="#b2dfee" stroke="#000000" cx="770.9464" cy="-366.9802" rx="55.7903" ry="18"/>
<text text-anchor="middle" x="770.9464" y="-363.2802" font-family="Times,serif" font-size="14.00" fill="#000000">20,000 yomi</text>
</g>
<!-- threnody_yomi&#45;&gt;project133 -->
<g id="edge36" class="edge">
<title>threnody_yomi&#45;&gt;project133</title>
<path fill="none" stroke="#000000" d="M791.3241,-350.0305C807.0987,-336.9096 829.207,-318.5205 847.1398,-303.6044"/>
<polygon fill="#000000" stroke="#000000" points="849.5976,-306.1125 855.0476,-297.0269 845.1213,-300.7309 849.5976,-306.1125"/>
</g>
<!-- threnody_yomi2 -->
<g id="node27" class="node">
<title>threnody_yomi2</title>
<ellipse fill="#b2dfee" stroke="#000000" cx="880.9464" cy="-188.6102" rx="54.3945" ry="26.7407"/>
<text text-anchor="middle" x="880.9464" y="-192.4102" font-family="Times,serif" font-size="14.00" fill="#000000">prev. yomi</text>
<text text-anchor="middle" x="880.9464" y="-177.4102" font-family="Times,serif" font-size="14.00" fill="#000000"> +4,000</text>
</g>
<!-- threnody_yomi2&#45;&gt;project133_repeat -->
<g id="edge41" class="edge">
<title>threnody_yomi2&#45;&gt;project133_repeat</title>
<path fill="none" stroke="#000000" d="M863.0616,-163.1343C855.0607,-151.7375 845.6087,-138.2735 837.4286,-126.6215"/>
<polygon fill="#000000" stroke="#000000" points="840.0767,-124.302 831.4663,-118.1285 834.3475,-128.324 840.0767,-124.302"/>
</g>
<!-- high_trust_cost -->
<g id="node28" class="node">
<title>high_trust_cost</title>
<ellipse fill="#b2dfee" stroke="#000000" cx="845.9464" cy="-577.9102" rx="71.3357" ry="37.4533"/>
<text text-anchor="middle" x="845.9464" y="-589.2102" font-family="Times,serif" font-size="14.00" fill="#000000">Probe trust cost</text>
<text text-anchor="middle" x="845.9464" y="-574.2102" font-family="Times,serif" font-size="14.00" fill="#000000"> greater than</text>
<text text-anchor="middle" x="845.9464" y="-559.2102" font-family="Times,serif" font-size="14.00" fill="#000000"> available yomi</text>
</g>
<!-- high_trust_cost&#45;&gt;project128 -->
<g id="edge19" class="edge">
<title>high_trust_cost&#45;&gt;project128</title>
<path fill="none" stroke="#000000" d="M844.9307,-540.3465C844.6132,-528.6019 844.2632,-515.6576 843.9467,-503.9524"/>
<polygon fill="#000000" stroke="#000000" points="847.4364,-503.5229 843.6673,-493.6212 840.439,-503.7122 847.4364,-503.5229"/>
</g>
<!-- 50 nonillion clips -->
<g id="node30" class="node">
<title>50 nonillion clips</title>
<ellipse fill="#d3d3d3" stroke="#000000" cx="696.9464" cy="-277.9802" rx="72.5877" ry="18"/>
<text text-anchor="middle" x="696.9464" y="-274.2802" font-family="Times,serif" font-size="14.00" fill="#000000">50 nonillion clips</text>
</g>
<!-- 50 nonillion clips&#45;&gt;project132 -->
<g id="edge33" class="edge">
<title>50 nonillion clips&#45;&gt;project132</title>
<path fill="none" stroke="#000000" d="M668.7126,-261.3799C645.596,-247.7882 612.5645,-228.367 586.4393,-213.0064"/>
<polygon fill="#000000" stroke="#000000" points="587.9085,-209.8101 577.5141,-207.7587 584.3605,-215.8444 587.9085,-209.8101"/>
</g>
<!-- hazard_lost_100 -->
<g id="node31" class="node">
<title>hazard_lost_100</title>
<ellipse fill="#333333" stroke="#000000" cx="372.9464" cy="-678.2569" rx="70.0071" ry="26.7407"/>
<text text-anchor="middle" x="372.9464" y="-682.0569" font-family="Times,serif" font-size="14.00" fill="#cccccc">100 probes</text>
<text text-anchor="middle" x="372.9464" y="-667.0569" font-family="Times,serif" font-size="14.00" fill="#cccccc"> lost to hazards</text>
</g>
<!-- hazard_lost_100&#45;&gt;project129 -->
<g id="edge22" class="edge">
<title>hazard_lost_100&#45;&gt;project129</title>
<path fill="none" stroke="#000000" d="M372.9464,-651.3658C372.9464,-637.3947 372.9464,-620.3287 372.9464,-606.164"/>
<polygon fill="#000000" stroke="#000000" points="376.4465,-605.9969 372.9464,-595.9969 369.4465,-605.9969 376.4465,-605.9969"/>
</g>
<!-- combat_lost_1 -->
<g id="node32" class="node">
<title>combat_lost_1</title>
<ellipse fill="#333333" stroke="#000000" cx="544.9464" cy="-577.9102" rx="69.0935" ry="26.7407"/>
<text text-anchor="middle" x="544.9464" y="-581.7102" font-family="Times,serif" font-size="14.00" fill="#cccccc">Any probes</text>
<text text-anchor="middle" x="544.9464" y="-566.7102" font-family="Times,serif" font-size="14.00" fill="#cccccc"> lost in combat</text>
</g>
<!-- combat_lost_10m -->
<g id="node33" class="node">
<title>combat_lost_10m</title>
<ellipse fill="#333333" stroke="#000000" cx="553.9464" cy="-466.9569" rx="56.6372" ry="37.4533"/>
<text text-anchor="middle" x="553.9464" y="-478.2569" font-family="Times,serif" font-size="14.00" fill="#cccccc">10 million</text>
<text text-anchor="middle" x="553.9464" y="-463.2569" font-family="Times,serif" font-size="14.00" fill="#cccccc"> probes lost</text>
<text text-anchor="middle" x="553.9464" y="-448.2569" font-family="Times,serif" font-size="14.00" fill="#cccccc"> in combat</text>
</g>
<!-- combat_lost_1&#45;&gt;combat_lost_10m -->
<g id="edge20" class="edge">
<title>combat_lost_1&#45;&gt;combat_lost_10m</title>
<path fill="none" stroke="#000000" d="M547.125,-551.0515C548.011,-540.1286 549.0624,-527.1674 550.071,-514.7326"/>
<polygon fill="#000000" stroke="#000000" points="553.5836,-514.7177 550.9037,-504.4674 546.6066,-514.1517 553.5836,-514.7177"/>
</g>
<!-- combat_lost_1&#45;&gt;project131 -->
<g id="edge24" class="edge">
<title>combat_lost_1&#45;&gt;project131</title>
<path fill="none" stroke="#000000" d="M497.8188,-558.2033C483.7397,-552.3967 468.2469,-546.0865 453.9464,-540.4335 411.9559,-523.8348 397.4071,-528.0871 358.9464,-504.4335 353.2322,-500.9193 347.5961,-496.5478 342.4176,-492.0443"/>
<polygon fill="#000000" stroke="#000000" points="344.4428,-489.152 334.7112,-484.9631 339.7066,-494.3064 344.4428,-489.152"/>
</g>
<!-- combat_lost_10m&#45;&gt;project120 -->
<g id="edge27" class="edge">
<title>combat_lost_10m&#45;&gt;project120</title>
<path fill="none" stroke="#000000" d="M512.156,-441.58C504.544,-437.3277 496.591,-433.1201 488.9464,-429.4802 451.2367,-411.5252 438.2702,-410.052 396.0994,-393.8648"/>
<polygon fill="#000000" stroke="#000000" points="397.2263,-390.5476 386.638,-390.1761 394.6836,-397.0695 397.2263,-390.5476"/>
</g>
<!-- combat_lost_10m&#45;&gt;project121 -->
<g id="edge30" class="edge">
<title>combat_lost_10m&#45;&gt;project121</title>
<path fill="none" stroke="#000000" d="M571.1399,-431.1454C576.7991,-419.3581 583.0087,-406.4244 588.361,-395.2764"/>
<polygon fill="#000000" stroke="#000000" points="591.6355,-396.5427 592.8085,-386.013 585.3251,-393.513 591.6355,-396.5427"/>
</g>
<!-- project131&#45;&gt;project120 -->
<g id="edge28" class="edge">
<title>project131&#45;&gt;project120</title>
<path fill="none" stroke="#000000" d="M320.1474,-448.6196C321.6537,-436.0698 323.7027,-418.9987 325.5377,-403.7107"/>
<polygon fill="#000000" stroke="#000000" points="329.0478,-403.8351 326.7645,-393.4892 322.0977,-403.0008 329.0478,-403.8351"/>
</g>
<!-- project121&#45;&gt;project132 -->
<g id="edge34" class="edge">
<title>project121&#45;&gt;project132</title>
<path fill="none" stroke="#000000" d="M599.3379,-347.7585C595.8295,-324.4899 588.643,-284.3384 576.9464,-251.4802 572.7531,-239.7004 566.815,-227.3172 561.1906,-216.6853"/>
<polygon fill="#000000" stroke="#000000" points="564.2368,-214.9606 556.3806,-207.8521 558.0892,-218.3083 564.2368,-214.9606"/>
</g>
<!-- project121&#45;&gt;project133 -->
<g id="edge37" class="edge">
<title>project121&#45;&gt;project133</title>
<path fill="none" stroke="#000000" d="M661.1553,-347.8875C704.5399,-333.8975 763.549,-314.8692 809.0493,-300.197"/>
<polygon fill="#000000" stroke="#000000" points="810.3921,-303.4416 818.8354,-297.0414 808.2438,-296.7794 810.3921,-303.4416"/>
</g>
<!-- project121&#45;&gt;project134 -->
<g id="edge45" class="edge">
<title>project121&#45;&gt;project134</title>
<path fill="none" stroke="#000000" d="M548.5296,-347.8875C516.1289,-336.3065 474.0687,-321.2729 437.2586,-308.1159"/>
<polygon fill="#000000" stroke="#000000" points="438.1213,-304.7075 427.5267,-304.6375 435.7653,-311.2991 438.1213,-304.7075"/>
</g>
<!-- project133&#45;&gt;threnody_creat2 -->
<g id="edge38" class="edge">
<title>project133&#45;&gt;threnody_creat2</title>
<path fill="none" stroke="#000000" d="M851.7743,-258.8081C835.1381,-246.6214 813.3044,-230.6273 794.6803,-216.9844"/>
<polygon fill="#000000" stroke="#000000" points="796.5148,-213.9896 786.3794,-210.9036 792.3782,-219.6366 796.5148,-213.9896"/>
</g>
<!-- project133&#45;&gt;threnody_yomi2 -->
<g id="edge39" class="edge">
<title>project133&#45;&gt;threnody_yomi2</title>
<path fill="none" stroke="#000000" d="M878.5973,-258.5883C878.9193,-248.9979 879.319,-237.0899 879.6969,-225.8322"/>
<polygon fill="#000000" stroke="#000000" points="883.1974,-225.8734 880.0349,-215.7616 876.2013,-225.6385 883.1974,-225.8734"/>
</g>
<!-- project133_repeat&#45;&gt;project133 -->
<g id="edge42" class="edge">
<title>project133_repeat&#45;&gt;project133</title>
<path fill="none" stroke="#000000" d="M888.286,-117.8707C909.9238,-127.3768 931.3425,-141.3654 943.9464,-161.7401 956.5116,-182.0523 953.3862,-193.5403 943.9464,-215.4802 937.8147,-229.7315 926.6587,-242.2545 915.2418,-252.2748"/>
<polygon fill="#000000" stroke="#000000" points="912.8268,-249.7302 907.3547,-258.8025 917.29,-255.1229 912.8268,-249.7302"/>
</g>
<!-- universal_paperclips -->
<g id="node42" class="node">
<title>universal_paperclips</title>
<ellipse fill="#333333" stroke="#000000" cx="590.9464" cy="-98.8701" rx="51.7379" ry="26.7407"/>
<text text-anchor="middle" x="590.9464" y="-102.6701" font-family="Times,serif" font-size="14.00" fill="#cccccc">Universal</text>
<text text-anchor="middle" x="590.9464" y="-87.6701" font-family="Times,serif" font-size="14.00" fill="#cccccc">Paperclips</text>
</g>
<!-- universal_paperclips&#45;&gt;project200 -->
<g id="edge47" class="edge">
<title>universal_paperclips&#45;&gt;project200</title>
<path fill="none" stroke="#000000" d="M560.3669,-76.9855C545.256,-66.1711 526.987,-53.0966 511.4927,-42.0079"/>
<polygon fill="#000000" stroke="#000000" points="513.3769,-39.0524 503.208,-36.0788 509.3031,-44.7449 513.3769,-39.0524"/>
</g>
<!-- universal_paperclips&#45;&gt;project201 -->
<g id="edge49" class="edge">
<title>universal_paperclips&#45;&gt;project201</title>
<path fill="none" stroke="#000000" d="M638.092,-87.4549C692.3968,-74.3063 782.4387,-52.5048 847.1664,-36.8325"/>
<polygon fill="#000000" stroke="#000000" points="848.0309,-40.2245 856.9264,-34.4694 846.3835,-33.421 848.0309,-40.2245"/>
</g>
</g>
</svg>
