<?xml version="1.0" encoding="UTF-8" standalone="no"?>
<!DOCTYPE svg PUBLIC "-//W3C//DTD SVG 1.1//EN"
 "http://www.w3.org/Graphics/SVG/1.1/DTD/svg11.dtd">
<!-- Generated by graphviz version 2.40.1 (20161225.0304)
 -->
<!-- Title: %3 Pages: 1 -->
<svg width="1229pt" height="1247pt"
 viewBox="0.00 0.00 1229.00 1246.74" xmlns="http://www.w3.org/2000/svg" xmlns:xlink="http://www.w3.org/1999/xlink">
<g id="graph0" class="graph" transform="scale(1 1) rotate(0) translate(4 1242.7401)">
<title>%3</title>
<polygon fill="#ffffff" stroke="transparent" points="-4,4 -4,-1242.7401 1225,-1242.7401 1225,4 -4,4"/>
<!-- s1b_project34 -->
<g id="node1" class="node">
<title>s1b_project34</title>
<polygon fill="#333333" stroke="#000000" points="145,-1164.7401 0,-1164.7401 0,-1126.7401 145,-1126.7401 145,-1164.7401"/>
<text text-anchor="middle" x="72.5" y="-1149.5401" font-family="Times,serif" font-size="14.00" fill="#cccccc">Hypno Harmonics</text>
<text text-anchor="middle" x="72.5" y="-1134.5401" font-family="Times,serif" font-size="14.00" fill="#cccccc">(5x marketing, &#45;1 trust)</text>
</g>
<!-- project70 -->
<g id="node40" class="node">
<title>project70</title>
<polygon fill="#333333" stroke="#000000" points="174.5,-360.7401 82.5,-360.7401 82.5,-324.7401 174.5,-324.7401 174.5,-360.7401"/>
<text text-anchor="middle" x="128.5" y="-339.0401" font-family="Times,serif" font-size="14.00" fill="#cccccc">HypnoDrones</text>
</g>
<!-- s1b_project34&#45;&gt;project70 -->
<g id="edge44" class="edge">
<title>s1b_project34&#45;&gt;project70</title>
<path fill="none" stroke="#000000" d="M72.5,-1126.5818C72.5,-1098.37 72.5,-1043.9901 72.5,-997.7401 72.5,-997.7401 72.5,-997.7401 72.5,-487.7401 72.5,-444.3415 94.5999,-398.2464 111.0332,-369.9695"/>
<polygon fill="#000000" stroke="#000000" points="114.214,-371.4703 116.3488,-361.0927 108.2084,-367.8739 114.214,-371.4703"/>
</g>
<!-- s1_25k_creat -->
<g id="node2" class="node">
<title>s1_25k_creat</title>
<ellipse fill="#9370db" stroke="#000000" cx="777.5" cy="-342.7401" rx="54.6905" ry="18"/>
<text text-anchor="middle" x="777.5" y="-339.0401" font-family="Times,serif" font-size="14.00" fill="#000000">25,000 creat</text>
</g>
<!-- s1_50k_creat -->
<g id="node3" class="node">
<title>s1_50k_creat</title>
<ellipse fill="#9370db" stroke="#000000" cx="819.5" cy="-261.8701" rx="54.6905" ry="18"/>
<text text-anchor="middle" x="819.5" y="-258.1701" font-family="Times,serif" font-size="14.00" fill="#000000">50,000 creat</text>
</g>
<!-- s1_25k_creat&#45;&gt;s1_50k_creat -->
<g id="edge1" class="edge">
<title>s1_25k_creat&#45;&gt;s1_50k_creat</title>
<path fill="none" stroke="#000000" d="M786.8212,-324.7924C792.3131,-314.2178 799.3677,-300.6344 805.5157,-288.7964"/>
<polygon fill="#000000" stroke="#000000" points="808.7019,-290.2553 810.2049,-279.7676 802.4898,-287.0289 808.7019,-290.2553"/>
</g>
<!-- s1_project119 -->
<g id="node5" class="node">
<title>s1_project119</title>
<polygon fill="#b2dfee" stroke="#000000" points="695,-199 568,-199 568,-146 695,-146 695,-199"/>
<text text-anchor="middle" x="631.5" y="-183.8" font-family="Times,serif" font-size="14.00" fill="#000000">Theory of Mind</text>
<text text-anchor="middle" x="631.5" y="-168.8" font-family="Times,serif" font-size="14.00" fill="#000000">(Double tournament</text>
<text text-anchor="middle" x="631.5" y="-153.8" font-family="Times,serif" font-size="14.00" fill="#000000"> cost and reward)</text>
</g>
<!-- s1_25k_creat&#45;&gt;s1_project119 -->
<g id="edge2" class="edge">
<title>s1_25k_creat&#45;&gt;s1_project119</title>
<path fill="none" stroke="#000000" d="M770.4162,-324.8487C760.8318,-302.1761 742.0683,-262.7179 717.5,-235 707.7518,-224.0021 695.7477,-213.7992 683.8342,-204.9608"/>
<polygon fill="#000000" stroke="#000000" points="685.7934,-202.0587 675.6297,-199.0668 681.7093,-207.7438 685.7934,-202.0587"/>
</g>
<!-- s1_project118 -->
<g id="node6" class="node">
<title>s1_project118</title>
<polygon fill="#b2dfee" stroke="#000000" points="966,-190.5 873,-190.5 873,-154.5 966,-154.5 966,-190.5"/>
<text text-anchor="middle" x="919.5" y="-168.8" font-family="Times,serif" font-size="14.00" fill="#000000">AutoTourney </text>
</g>
<!-- s1_50k_creat&#45;&gt;s1_project118 -->
<g id="edge4" class="edge">
<title>s1_50k_creat&#45;&gt;s1_project118</title>
<path fill="none" stroke="#000000" d="M838.781,-244.6386C853.7059,-231.3002 874.593,-212.6334 891.3806,-197.6303"/>
<polygon fill="#000000" stroke="#000000" points="894.1245,-199.8722 899.2485,-190.5988 889.4599,-194.6528 894.1245,-199.8722"/>
</g>
<!-- 100,000 creat -->
<g id="node21" class="node">
<title>100,000 creat</title>
<ellipse fill="#ffa500" stroke="#000000" cx="795.5" cy="-172.5" rx="59.2899" ry="18"/>
<text text-anchor="middle" x="795.5" y="-168.8" font-family="Times,serif" font-size="14.00" fill="#000000">100,000 creat</text>
</g>
<!-- s1_50k_creat&#45;&gt;100,000 creat -->
<g id="edge19" class="edge">
<title>s1_50k_creat&#45;&gt;100,000 creat</title>
<path fill="none" stroke="#000000" d="M814.6432,-243.7847C811.2926,-231.3078 806.7738,-214.4807 802.9679,-200.3086"/>
<polygon fill="#000000" stroke="#000000" points="806.3234,-199.3085 800.3495,-190.5585 799.5629,-201.1241 806.3234,-199.3085"/>
</g>
<!-- s1_all_strats -->
<g id="node4" class="node">
<title>s1_all_strats</title>
<ellipse fill="#b2dfee" stroke="#000000" cx="631.5" cy="-261.8701" rx="77.1866" ry="18"/>
<text text-anchor="middle" x="631.5" y="-258.1701" font-family="Times,serif" font-size="14.00" fill="#000000">All strats unlocked</text>
</g>
<!-- s1_all_strats&#45;&gt;s1_project119 -->
<g id="edge3" class="edge">
<title>s1_all_strats&#45;&gt;s1_project119</title>
<path fill="none" stroke="#000000" d="M631.5,-243.7847C631.5,-233.8436 631.5,-221.1411 631.5,-209.22"/>
<polygon fill="#000000" stroke="#000000" points="635.0001,-209.0342 631.5,-199.0342 628.0001,-209.0343 635.0001,-209.0342"/>
</g>
<!-- 20,000 ops -->
<g id="node7" class="node">
<title>20,000 ops</title>
<ellipse fill="none" stroke="#000000" cx="516.5" cy="-1145.7401" rx="50.0912" ry="18"/>
<text text-anchor="middle" x="516.5" y="-1142.0401" font-family="Times,serif" font-size="14.00" fill="#000000">20,000 ops</text>
</g>
<!-- 22,500 ops -->
<g id="node8" class="node">
<title>22,500 ops</title>
<ellipse fill="none" stroke="#000000" cx="443.5" cy="-1071.7401" rx="50.0912" ry="18"/>
<text text-anchor="middle" x="443.5" y="-1068.0401" font-family="Times,serif" font-size="14.00" fill="#000000">22,500 ops</text>
</g>
<!-- 20,000 ops&#45;&gt;22,500 ops -->
<g id="edge5" class="edge">
<title>20,000 ops&#45;&gt;22,500 ops</title>
<path fill="none" stroke="#000000" d="M499.5688,-1128.577C490.0789,-1118.9571 478.0833,-1106.7971 467.625,-1096.1956"/>
<polygon fill="#000000" stroke="#000000" points="469.8538,-1093.4712 460.3393,-1088.8101 464.8705,-1098.3872 469.8538,-1093.4712"/>
</g>
<!-- project31 -->
<g id="node45" class="node">
<title>project31</title>
<polygon fill="#ba55d3" stroke="#000000" points="679,-1090.7401 512,-1090.7401 512,-1052.7401 679,-1052.7401 679,-1090.7401"/>
<text text-anchor="middle" x="595.5" y="-1075.5401" font-family="Times,serif" font-size="14.00" fill="#000000">Male Pattern Baldness</text>
<text text-anchor="middle" x="595.5" y="-1060.5401" font-family="Times,serif" font-size="14.00" fill="#000000">(+20 trust, +.01 stock gain)</text>
</g>
<!-- 20,000 ops&#45;&gt;project31 -->
<g id="edge54" class="edge">
<title>20,000 ops&#45;&gt;project31</title>
<path fill="none" stroke="#000000" d="M534.8228,-1128.577C544.5998,-1119.4187 556.8346,-1107.9584 567.7517,-1097.7322"/>
<polygon fill="#000000" stroke="#000000" points="570.1472,-1100.284 575.0528,-1090.8932 565.3618,-1095.1752 570.1472,-1100.284"/>
</g>
<!-- 25,000 ops -->
<g id="node9" class="node">
<title>25,000 ops</title>
<ellipse fill="none" stroke="#000000" cx="481.5" cy="-997.7401" rx="50.0912" ry="18"/>
<text text-anchor="middle" x="481.5" y="-994.0401" font-family="Times,serif" font-size="14.00" fill="#000000">25,000 ops</text>
</g>
<!-- 22,500 ops&#45;&gt;25,000 ops -->
<g id="edge6" class="edge">
<title>22,500 ops&#45;&gt;25,000 ops</title>
<path fill="none" stroke="#000000" d="M452.6987,-1053.8268C457.2263,-1045.0099 462.7764,-1034.2018 467.7919,-1024.4348"/>
<polygon fill="#000000" stroke="#000000" points="470.9314,-1025.983 472.386,-1015.4885 464.7044,-1022.7853 470.9314,-1025.983"/>
</g>
<!-- project63 -->
<g id="node31" class="node">
<title>project63</title>
<polygon fill="#b2dfee" stroke="#000000" points="413.5,-1015.7401 243.5,-1015.7401 243.5,-979.7401 413.5,-979.7401 413.5,-1015.7401"/>
<text text-anchor="middle" x="328.5" y="-994.0401" font-family="Times,serif" font-size="14.00" fill="#000000">New Strategy: GENEROUS</text>
</g>
<!-- 22,500 ops&#45;&gt;project63 -->
<g id="edge24" class="edge">
<title>22,500 ops&#45;&gt;project63</title>
<path fill="none" stroke="#000000" d="M418.8296,-1055.8653C403.3181,-1045.8839 383.0131,-1032.8181 365.584,-1021.6029"/>
<polygon fill="#000000" stroke="#000000" points="367.0759,-1018.4009 356.7725,-1015.9329 363.288,-1024.2875 367.0759,-1018.4009"/>
</g>
<!-- 30,000 ops -->
<g id="node10" class="node">
<title>30,000 ops</title>
<ellipse fill="none" stroke="#000000" cx="481.5" cy="-923.7401" rx="50.0912" ry="18"/>
<text text-anchor="middle" x="481.5" y="-920.0401" font-family="Times,serif" font-size="14.00" fill="#000000">30,000 ops</text>
</g>
<!-- 25,000 ops&#45;&gt;30,000 ops -->
<g id="edge7" class="edge">
<title>25,000 ops&#45;&gt;30,000 ops</title>
<path fill="none" stroke="#000000" d="M481.5,-979.448C481.5,-971.2037 481.5,-961.2777 481.5,-952.1024"/>
<polygon fill="#000000" stroke="#000000" points="485.0001,-951.8218 481.5,-941.8218 478.0001,-951.8219 485.0001,-951.8218"/>
</g>
<!-- project64 -->
<g id="node32" class="node">
<title>project64</title>
<polygon fill="#b2dfee" stroke="#000000" points="413.5,-941.7401 251.5,-941.7401 251.5,-905.7401 413.5,-905.7401 413.5,-941.7401"/>
<text text-anchor="middle" x="332.5" y="-920.0401" font-family="Times,serif" font-size="14.00" fill="#000000">New Strategy: MINIMAX</text>
</g>
<!-- 25,000 ops&#45;&gt;project64 -->
<g id="edge26" class="edge">
<title>25,000 ops&#45;&gt;project64</title>
<path fill="none" stroke="#000000" d="M452.0624,-983.1201C430.9302,-972.6249 402.0498,-958.2816 377.9674,-946.3212"/>
<polygon fill="#000000" stroke="#000000" points="379.5118,-943.1804 368.9987,-941.867 376.3981,-949.4498 379.5118,-943.1804"/>
</g>
<!-- project28 -->
<g id="node42" class="node">
<title>project28</title>
<polygon fill="#ba55d3" stroke="#000000" points="717,-942.7401 550,-942.7401 550,-904.7401 717,-904.7401 717,-942.7401"/>
<text text-anchor="middle" x="633.5" y="-927.5401" font-family="Times,serif" font-size="14.00" fill="#000000">Cure for Cancer</text>
<text text-anchor="middle" x="633.5" y="-912.5401" font-family="Times,serif" font-size="14.00" fill="#000000">(+10 trust, +.01 stock gain)</text>
</g>
<!-- 25,000 ops&#45;&gt;project28 -->
<g id="edge46" class="edge">
<title>25,000 ops&#45;&gt;project28</title>
<path fill="none" stroke="#000000" d="M511.5303,-983.1201C532.5509,-972.8864 561.0869,-958.9939 585.2722,-947.2194"/>
<polygon fill="#000000" stroke="#000000" points="586.8447,-950.3467 594.3037,-942.8225 583.7806,-944.0529 586.8447,-950.3467"/>
</g>
<!-- pchip4 -->
<g id="node47" class="node">
<title>pchip4</title>
<polygon fill="#666666" stroke="#000000" points="233,-941.7401 112,-941.7401 112,-905.7401 233,-905.7401 233,-941.7401"/>
<text text-anchor="middle" x="172.5" y="-920.0401" font-family="Times,serif" font-size="14.00" fill="#ffffff">Photonic Chip (#4)</text>
</g>
<!-- 25,000 ops&#45;&gt;pchip4 -->
<g id="edge56" class="edge">
<title>25,000 ops&#45;&gt;pchip4</title>
<path fill="none" stroke="#000000" d="M445.1821,-985.3272C437.7254,-982.9814 429.8943,-980.6635 422.5,-978.7401 346.6272,-959.0048 323.6905,-961.22 243.2454,-942.8188"/>
<polygon fill="#000000" stroke="#000000" points="243.6753,-939.3255 233.1425,-940.4697 242.09,-946.1436 243.6753,-939.3255"/>
</g>
<!-- 32,500 ops -->
<g id="node11" class="node">
<title>32,500 ops</title>
<ellipse fill="none" stroke="#000000" cx="498.5" cy="-849.7401" rx="50.0912" ry="18"/>
<text text-anchor="middle" x="498.5" y="-846.0401" font-family="Times,serif" font-size="14.00" fill="#000000">32,500 ops</text>
</g>
<!-- 30,000 ops&#45;&gt;32,500 ops -->
<g id="edge8" class="edge">
<title>30,000 ops&#45;&gt;32,500 ops</title>
<path fill="none" stroke="#000000" d="M485.7022,-905.448C487.6168,-897.114 489.9261,-887.0617 492.053,-877.8034"/>
<polygon fill="#000000" stroke="#000000" points="495.5182,-878.3516 494.3461,-867.8218 488.6959,-876.7843 495.5182,-878.3516"/>
</g>
<!-- project65 -->
<g id="node33" class="node">
<title>project65</title>
<polygon fill="#b2dfee" stroke="#000000" points="430,-867.7401 251,-867.7401 251,-831.7401 430,-831.7401 430,-867.7401"/>
<text text-anchor="middle" x="340.5" y="-846.0401" font-family="Times,serif" font-size="14.00" fill="#000000">New Strategy: TIT FOR TAT</text>
</g>
<!-- 30,000 ops&#45;&gt;project65 -->
<g id="edge28" class="edge">
<title>30,000 ops&#45;&gt;project65</title>
<path fill="none" stroke="#000000" d="M452.9665,-908.7651C433.1634,-898.372 406.4144,-884.3335 383.9716,-872.555"/>
<polygon fill="#000000" stroke="#000000" points="385.4511,-869.3788 374.9699,-867.8307 382.1981,-875.577 385.4511,-869.3788"/>
</g>
<!-- project29 -->
<g id="node43" class="node">
<title>project29</title>
<polygon fill="#ba55d3" stroke="#000000" points="828,-868.7401 661,-868.7401 661,-830.7401 828,-830.7401 828,-868.7401"/>
<text text-anchor="middle" x="744.5" y="-853.5401" font-family="Times,serif" font-size="14.00" fill="#000000">World Peace</text>
<text text-anchor="middle" x="744.5" y="-838.5401" font-family="Times,serif" font-size="14.00" fill="#000000">(+12 trust, +.01 stock gain)</text>
</g>
<!-- 30,000 ops&#45;&gt;project29 -->
<g id="edge48" class="edge">
<title>30,000 ops&#45;&gt;project29</title>
<path fill="none" stroke="#000000" d="M518.5538,-911.5066C525.8112,-909.1958 533.3795,-906.8452 540.5,-904.7401 579.8947,-893.0937 623.8629,-881.1113 660.8636,-871.3158"/>
<polygon fill="#000000" stroke="#000000" points="661.8322,-874.6801 670.6079,-868.744 660.0458,-867.9119 661.8322,-874.6801"/>
</g>
<!-- pchip5 -->
<g id="node48" class="node">
<title>pchip5</title>
<polygon fill="#666666" stroke="#000000" points="233,-867.7401 112,-867.7401 112,-831.7401 233,-831.7401 233,-867.7401"/>
<text text-anchor="middle" x="172.5" y="-846.0401" font-family="Times,serif" font-size="14.00" fill="#ffffff">Photonic Chip (#5)</text>
</g>
<!-- 30,000 ops&#45;&gt;pchip5 -->
<g id="edge58" class="edge">
<title>30,000 ops&#45;&gt;pchip5</title>
<path fill="none" stroke="#000000" d="M445.1837,-911.321C437.7268,-908.9757 429.8953,-906.6595 422.5,-904.7401 346.2114,-884.9399 323.1037,-887.4029 243.0684,-869.0192"/>
<polygon fill="#000000" stroke="#000000" points="243.5524,-865.5381 233.0184,-866.6711 241.9598,-872.3545 243.5524,-865.5381"/>
</g>
<!-- 35,000 ops -->
<g id="node12" class="node">
<title>35,000 ops</title>
<ellipse fill="none" stroke="#000000" cx="497.5" cy="-776.7401" rx="50.0912" ry="18"/>
<text text-anchor="middle" x="497.5" y="-773.0401" font-family="Times,serif" font-size="14.00" fill="#000000">35,000 ops</text>
</g>
<!-- 32,500 ops&#45;&gt;35,000 ops -->
<g id="edge9" class="edge">
<title>32,500 ops&#45;&gt;35,000 ops</title>
<path fill="none" stroke="#000000" d="M498.2528,-831.6952C498.1422,-823.623 498.0093,-813.9165 497.8861,-804.9219"/>
<polygon fill="#000000" stroke="#000000" points="501.3846,-804.7816 497.7478,-794.8305 494.3852,-804.8775 501.3846,-804.7816"/>
</g>
<!-- project66 -->
<g id="node34" class="node">
<title>project66</title>
<polygon fill="#b2dfee" stroke="#000000" points="427,-794.7401 256,-794.7401 256,-758.7401 427,-758.7401 427,-794.7401"/>
<text text-anchor="middle" x="341.5" y="-773.0401" font-family="Times,serif" font-size="14.00" fill="#000000">New Strategy: BEAT LAST</text>
</g>
<!-- 32,500 ops&#45;&gt;project66 -->
<g id="edge30" class="edge">
<title>32,500 ops&#45;&gt;project66</title>
<path fill="none" stroke="#000000" d="M467.8561,-835.4917C445.6024,-825.1444 415.0513,-810.9391 389.5646,-799.0886"/>
<polygon fill="#000000" stroke="#000000" points="390.9722,-795.8833 380.4287,-794.8407 388.0208,-802.2307 390.9722,-795.8833"/>
</g>
<!-- 40,000 ops -->
<g id="node13" class="node">
<title>40,000 ops</title>
<ellipse fill="none" stroke="#000000" cx="497.5" cy="-704.7401" rx="50.0912" ry="18"/>
<text text-anchor="middle" x="497.5" y="-701.0401" font-family="Times,serif" font-size="14.00" fill="#000000">40,000 ops</text>
</g>
<!-- 35,000 ops&#45;&gt;40,000 ops -->
<g id="edge10" class="edge">
<title>35,000 ops&#45;&gt;40,000 ops</title>
<path fill="none" stroke="#000000" d="M497.5,-758.5715C497.5,-750.8711 497.5,-741.7145 497.5,-733.1567"/>
<polygon fill="#000000" stroke="#000000" points="501.0001,-733.1533 497.5,-723.1534 494.0001,-733.1534 501.0001,-733.1533"/>
</g>
<!-- pchip6 -->
<g id="node49" class="node">
<title>pchip6</title>
<polygon fill="#666666" stroke="#000000" points="429,-722.7401 308,-722.7401 308,-686.7401 429,-686.7401 429,-722.7401"/>
<text text-anchor="middle" x="368.5" y="-701.0401" font-family="Times,serif" font-size="14.00" fill="#ffffff">Photonic Chip (#6)</text>
</g>
<!-- 35,000 ops&#45;&gt;pchip6 -->
<g id="edge60" class="edge">
<title>35,000 ops&#45;&gt;pchip6</title>
<path fill="none" stroke="#000000" d="M470.1424,-761.4708C452.5692,-751.6624 429.4159,-738.7397 409.6466,-727.7056"/>
<polygon fill="#000000" stroke="#000000" points="411.2714,-724.6043 400.8337,-722.7868 407.8598,-730.7167 411.2714,-724.6043"/>
</g>
<!-- 45,000 ops -->
<g id="node14" class="node">
<title>45,000 ops</title>
<ellipse fill="none" stroke="#000000" cx="497.5" cy="-632.7401" rx="50.0912" ry="18"/>
<text text-anchor="middle" x="497.5" y="-629.0401" font-family="Times,serif" font-size="14.00" fill="#000000">45,000 ops</text>
</g>
<!-- 40,000 ops&#45;&gt;45,000 ops -->
<g id="edge11" class="edge">
<title>40,000 ops&#45;&gt;45,000 ops</title>
<path fill="none" stroke="#000000" d="M497.5,-686.5715C497.5,-678.8711 497.5,-669.7145 497.5,-661.1567"/>
<polygon fill="#000000" stroke="#000000" points="501.0001,-661.1533 497.5,-651.1534 494.0001,-661.1534 501.0001,-661.1533"/>
</g>
<!-- pchip7 -->
<g id="node50" class="node">
<title>pchip7</title>
<polygon fill="#666666" stroke="#000000" points="429,-650.7401 308,-650.7401 308,-614.7401 429,-614.7401 429,-650.7401"/>
<text text-anchor="middle" x="368.5" y="-629.0401" font-family="Times,serif" font-size="14.00" fill="#ffffff">Photonic Chip (#7)</text>
</g>
<!-- 40,000 ops&#45;&gt;pchip7 -->
<g id="edge62" class="edge">
<title>40,000 ops&#45;&gt;pchip7</title>
<path fill="none" stroke="#000000" d="M470.1424,-689.4708C452.5692,-679.6624 429.4159,-666.7397 409.6466,-655.7056"/>
<polygon fill="#000000" stroke="#000000" points="411.2714,-652.6043 400.8337,-650.7868 407.8598,-658.7167 411.2714,-652.6043"/>
</g>
<!-- 50,000 ops -->
<g id="node15" class="node">
<title>50,000 ops</title>
<ellipse fill="none" stroke="#000000" cx="497.5" cy="-560.7401" rx="50.0912" ry="18"/>
<text text-anchor="middle" x="497.5" y="-557.0401" font-family="Times,serif" font-size="14.00" fill="#000000">50,000 ops</text>
</g>
<!-- 45,000 ops&#45;&gt;50,000 ops -->
<g id="edge12" class="edge">
<title>45,000 ops&#45;&gt;50,000 ops</title>
<path fill="none" stroke="#000000" d="M497.5,-614.5715C497.5,-606.8711 497.5,-597.7145 497.5,-589.1567"/>
<polygon fill="#000000" stroke="#000000" points="501.0001,-589.1533 497.5,-579.1534 494.0001,-589.1534 501.0001,-589.1533"/>
</g>
<!-- pchip8 -->
<g id="node51" class="node">
<title>pchip8</title>
<polygon fill="#666666" stroke="#000000" points="429,-578.7401 308,-578.7401 308,-542.7401 429,-542.7401 429,-578.7401"/>
<text text-anchor="middle" x="368.5" y="-557.0401" font-family="Times,serif" font-size="14.00" fill="#ffffff">Photonic Chip (#8)</text>
</g>
<!-- 45,000 ops&#45;&gt;pchip8 -->
<g id="edge64" class="edge">
<title>45,000 ops&#45;&gt;pchip8</title>
<path fill="none" stroke="#000000" d="M470.1424,-617.4708C452.5692,-607.6624 429.4159,-594.7397 409.6466,-583.7056"/>
<polygon fill="#000000" stroke="#000000" points="411.2714,-580.6043 400.8337,-578.7868 407.8598,-586.7167 411.2714,-580.6043"/>
</g>
<!-- 55,000 ops -->
<g id="node16" class="node">
<title>55,000 ops</title>
<ellipse fill="none" stroke="#000000" cx="497.5" cy="-487.7401" rx="50.0912" ry="18"/>
<text text-anchor="middle" x="497.5" y="-484.0401" font-family="Times,serif" font-size="14.00" fill="#000000">55,000 ops</text>
</g>
<!-- 50,000 ops&#45;&gt;55,000 ops -->
<g id="edge13" class="edge">
<title>50,000 ops&#45;&gt;55,000 ops</title>
<path fill="none" stroke="#000000" d="M497.5,-542.6952C497.5,-534.623 497.5,-524.9165 497.5,-515.9219"/>
<polygon fill="#000000" stroke="#000000" points="501.0001,-515.8304 497.5,-505.8305 494.0001,-515.8305 501.0001,-515.8304"/>
</g>
<!-- project30 -->
<g id="node44" class="node">
<title>project30</title>
<polygon fill="#ba55d3" stroke="#000000" points="996,-506.7401 829,-506.7401 829,-468.7401 996,-468.7401 996,-506.7401"/>
<text text-anchor="middle" x="912.5" y="-491.5401" font-family="Times,serif" font-size="14.00" fill="#000000">Global Warming</text>
<text text-anchor="middle" x="912.5" y="-476.5401" font-family="Times,serif" font-size="14.00" fill="#000000">(+12 trust, +.01 stock gain)</text>
</g>
<!-- 50,000 ops&#45;&gt;project30 -->
<g id="edge51" class="edge">
<title>50,000 ops&#45;&gt;project30</title>
<path fill="none" stroke="#000000" d="M542.7023,-552.7889C608.5787,-541.201 732.4784,-519.4066 818.6151,-504.2548"/>
<polygon fill="#000000" stroke="#000000" points="819.4206,-507.6669 828.663,-502.4874 818.2078,-500.7728 819.4206,-507.6669"/>
</g>
<!-- pchip9 -->
<g id="node52" class="node">
<title>pchip9</title>
<polygon fill="#666666" stroke="#000000" points="429,-505.7401 308,-505.7401 308,-469.7401 429,-469.7401 429,-505.7401"/>
<text text-anchor="middle" x="368.5" y="-484.0401" font-family="Times,serif" font-size="14.00" fill="#ffffff">Photonic Chip (#9)</text>
</g>
<!-- 50,000 ops&#45;&gt;pchip9 -->
<g id="edge66" class="edge">
<title>50,000 ops&#45;&gt;pchip9</title>
<path fill="none" stroke="#000000" d="M470.4574,-545.4369C452.7745,-535.4303 429.3436,-522.171 409.4029,-510.8867"/>
<polygon fill="#000000" stroke="#000000" points="410.9466,-507.7388 400.5197,-505.8598 407.4991,-513.831 410.9466,-507.7388"/>
</g>
<!-- 70,000 ops -->
<g id="node17" class="node">
<title>70,000 ops</title>
<ellipse fill="none" stroke="#000000" cx="498.5" cy="-414.7401" rx="50.0912" ry="18"/>
<text text-anchor="middle" x="498.5" y="-411.0401" font-family="Times,serif" font-size="14.00" fill="#000000">70,000 ops</text>
</g>
<!-- 55,000 ops&#45;&gt;70,000 ops -->
<g id="edge14" class="edge">
<title>55,000 ops&#45;&gt;70,000 ops</title>
<path fill="none" stroke="#000000" d="M497.7472,-469.6952C497.8578,-461.623 497.9907,-451.9165 498.1139,-442.9219"/>
<polygon fill="#000000" stroke="#000000" points="501.6148,-442.8775 498.2522,-432.8305 494.6154,-442.7816 501.6148,-442.8775"/>
</g>
<!-- pchip10 -->
<g id="node53" class="node">
<title>pchip10</title>
<polygon fill="#666666" stroke="#000000" points="430.5,-432.7401 302.5,-432.7401 302.5,-396.7401 430.5,-396.7401 430.5,-432.7401"/>
<text text-anchor="middle" x="366.5" y="-411.0401" font-family="Times,serif" font-size="14.00" fill="#ffffff">Photonic Chip (#10)</text>
</g>
<!-- 55,000 ops&#45;&gt;pchip10 -->
<g id="edge68" class="edge">
<title>55,000 ops&#45;&gt;pchip10</title>
<path fill="none" stroke="#000000" d="M470.3567,-472.6145C452.3388,-462.574 428.342,-449.2017 407.9543,-437.8406"/>
<polygon fill="#000000" stroke="#000000" points="409.6105,-434.7568 399.1715,-432.9464 406.203,-440.8715 409.6105,-434.7568"/>
</g>
<!-- 85 trust -->
<g id="node18" class="node">
<title>85 trust</title>
<ellipse fill="none" stroke="#000000" cx="498.5" cy="-342.7401" rx="37.8943" ry="18"/>
<text text-anchor="middle" x="498.5" y="-339.0401" font-family="Times,serif" font-size="14.00" fill="#000000">85 trust</text>
</g>
<!-- 70,000 ops&#45;&gt;85 trust -->
<g id="edge15" class="edge">
<title>70,000 ops&#45;&gt;85 trust</title>
<path fill="none" stroke="#000000" d="M498.5,-396.5715C498.5,-388.8711 498.5,-379.7145 498.5,-371.1567"/>
<polygon fill="#000000" stroke="#000000" points="502.0001,-371.1533 498.5,-361.1534 495.0001,-371.1534 502.0001,-371.1533"/>
</g>
<!-- 70,000 ops&#45;&gt;project70 -->
<g id="edge45" class="edge">
<title>70,000 ops&#45;&gt;project70</title>
<path fill="none" stroke="#000000" d="M461.5968,-402.5154C454.3262,-400.3816 446.7146,-398.3376 439.5,-396.7401 330.4969,-372.6038 297.2948,-385.903 184.6059,-360.7617"/>
<polygon fill="#000000" stroke="#000000" points="185.0747,-357.2787 174.5463,-358.4636 183.5156,-364.1029 185.0747,-357.2787"/>
</g>
<!-- 90 trust -->
<g id="node19" class="node">
<title>90 trust</title>
<ellipse fill="none" stroke="#000000" cx="498.5" cy="-261.8701" rx="37.8943" ry="18"/>
<text text-anchor="middle" x="498.5" y="-258.1701" font-family="Times,serif" font-size="14.00" fill="#000000">90 trust</text>
</g>
<!-- 85 trust&#45;&gt;90 trust -->
<g id="edge16" class="edge">
<title>85 trust&#45;&gt;90 trust</title>
<path fill="none" stroke="#000000" d="M498.5,-324.3894C498.5,-314.3599 498.5,-301.7154 498.5,-290.4265"/>
<polygon fill="#000000" stroke="#000000" points="502.0001,-290.1481 498.5,-280.1481 495.0001,-290.1481 502.0001,-290.1481"/>
</g>
<!-- project40 -->
<g id="node37" class="node">
<title>project40</title>
<polygon fill="#6e8b3d" stroke="#000000" points="442.5,-280.8701 296.5,-280.8701 296.5,-242.8701 442.5,-242.8701 442.5,-280.8701"/>
<text text-anchor="middle" x="369.5" y="-265.6701" font-family="Times,serif" font-size="14.00" fill="#000000">A Token of Goodwill...</text>
<text text-anchor="middle" x="369.5" y="-250.6701" font-family="Times,serif" font-size="14.00" fill="#000000">(+1 trust)</text>
</g>
<!-- 85 trust&#45;&gt;project40 -->
<g id="edge36" class="edge">
<title>85 trust&#45;&gt;project40</title>
<path fill="none" stroke="#000000" d="M475.4374,-328.2822C456.9659,-316.7024 430.6316,-300.1934 408.8406,-286.5327"/>
<polygon fill="#000000" stroke="#000000" points="410.4567,-283.4149 400.1249,-281.0688 406.7386,-289.3458 410.4567,-283.4149"/>
</g>
<!-- 90 trust&#45;&gt;s1_project119 -->
<g id="edge18" class="edge">
<title>90 trust&#45;&gt;s1_project119</title>
<path fill="none" stroke="#000000" d="M520.4622,-247.1124C537.5926,-235.6016 562.0204,-219.1872 583.6045,-204.6836"/>
<polygon fill="#000000" stroke="#000000" points="585.6778,-207.5073 592.0259,-199.0248 581.7737,-201.6971 585.6778,-207.5073"/>
</g>
<!-- 100 trust -->
<g id="node20" class="node">
<title>100 trust</title>
<ellipse fill="none" stroke="#000000" cx="307.5" cy="-91" rx="42.4939" ry="18"/>
<text text-anchor="middle" x="307.5" y="-87.3" font-family="Times,serif" font-size="14.00" fill="#000000">100 trust</text>
</g>
<!-- 90 trust&#45;&gt;100 trust -->
<g id="edge17" class="edge">
<title>90 trust&#45;&gt;100 trust</title>
<path fill="none" stroke="#000000" d="M487.7933,-244.3911C472.2265,-220.04 441.3689,-175.5737 406.5,-146 388.5882,-130.8083 365.8371,-117.8188 346.6627,-108.2841"/>
<polygon fill="#000000" stroke="#000000" points="348.1001,-105.0915 337.5741,-103.8864 345.0512,-111.3926 348.1001,-105.0915"/>
</g>
<!-- project35 -->
<g id="node39" class="node">
<title>project35</title>
<polygon fill="#333333" stroke="#000000" points="270.5,-36 112.5,-36 112.5,0 270.5,0 270.5,-36"/>
<text text-anchor="middle" x="191.5" y="-14.3" font-family="Times,serif" font-size="14.00" fill="#cccccc">Release the HypnoDrones</text>
</g>
<!-- 100 trust&#45;&gt;project35 -->
<g id="edge42" class="edge">
<title>100 trust&#45;&gt;project35</title>
<path fill="none" stroke="#000000" d="M283.7458,-76.0512C267.9101,-66.0857 246.7682,-52.7809 228.7199,-41.4228"/>
<polygon fill="#000000" stroke="#000000" points="230.4728,-38.3906 220.1451,-36.0266 226.7445,-44.3151 230.4728,-38.3906"/>
</g>
<!-- project219 -->
<g id="node54" class="node">
<title>project219</title>
<polygon fill="#ffa500" stroke="#000000" points="868,-110 723,-110 723,-72 868,-72 868,-110"/>
<text text-anchor="middle" x="795.5" y="-94.8" font-family="Times,serif" font-size="14.00" fill="#000000">Xavier Re&#45;initialization</text>
<text text-anchor="middle" x="795.5" y="-79.8" font-family="Times,serif" font-size="14.00" fill="#000000">(re&#45;allocate trust)</text>
</g>
<!-- 100,000 creat&#45;&gt;project219 -->
<g id="edge70" class="edge">
<title>100,000 creat&#45;&gt;project219</title>
<path fill="none" stroke="#000000" d="M795.5,-154.4125C795.5,-144.3593 795.5,-131.6077 795.5,-120.1799"/>
<polygon fill="#000000" stroke="#000000" points="799.0001,-120.1725 795.5,-110.1725 792.0001,-120.1725 799.0001,-120.1725"/>
</g>
<!-- 101 million clips -->
<g id="node22" class="node">
<title>101 million clips</title>
<ellipse fill="#d3d3d3" stroke="#000000" cx="370.5" cy="-342.7401" rx="71.4873" ry="18"/>
<text text-anchor="middle" x="370.5" y="-339.0401" font-family="Times,serif" font-size="14.00" fill="#000000">101 million clips</text>
</g>
<!-- 101 million clips&#45;&gt;project40 -->
<g id="edge37" class="edge">
<title>101 million clips&#45;&gt;project40</title>
<path fill="none" stroke="#000000" d="M370.2731,-324.3894C370.1517,-314.5718 369.9993,-302.2485 369.862,-291.1438"/>
<polygon fill="#000000" stroke="#000000" points="373.3599,-290.9478 369.7365,-280.9919 366.3605,-291.0345 373.3599,-290.9478"/>
</g>
<!-- 3,000 yomi -->
<g id="node23" class="node">
<title>3,000 yomi</title>
<ellipse fill="#b2dfee" stroke="#000000" cx="870.5" cy="-1071.7401" rx="51.9908" ry="18"/>
<text text-anchor="middle" x="870.5" y="-1068.0401" font-family="Times,serif" font-size="14.00" fill="#000000">3,000 yomi</text>
</g>
<!-- 4,500 yomi -->
<g id="node24" class="node">
<title>4,500 yomi</title>
<ellipse fill="#b2dfee" stroke="#000000" cx="870.5" cy="-997.7401" rx="51.9908" ry="18"/>
<text text-anchor="middle" x="870.5" y="-994.0401" font-family="Times,serif" font-size="14.00" fill="#000000">4,500 yomi</text>
</g>
<!-- 3,000 yomi&#45;&gt;4,500 yomi -->
<g id="edge20" class="edge">
<title>3,000 yomi&#45;&gt;4,500 yomi</title>
<path fill="none" stroke="#000000" d="M870.5,-1053.448C870.5,-1045.2037 870.5,-1035.2777 870.5,-1026.1024"/>
<polygon fill="#000000" stroke="#000000" points="874.0001,-1025.8218 870.5,-1015.8218 867.0001,-1025.8219 874.0001,-1025.8218"/>
</g>
<!-- project38 -->
<g id="node36" class="node">
<title>project38</title>
<polygon fill="#6e8b3d" stroke="#000000" points="1122,-1016.7401 979,-1016.7401 979,-978.7401 1122,-978.7401 1122,-1016.7401"/>
<text text-anchor="middle" x="1050.5" y="-1001.5401" font-family="Times,serif" font-size="14.00" fill="#000000">Full Monopoly</text>
<text text-anchor="middle" x="1050.5" y="-986.5401" font-family="Times,serif" font-size="14.00" fill="#000000">(+1 trust, 10x demand)</text>
</g>
<!-- 3,000 yomi&#45;&gt;project38 -->
<g id="edge33" class="edge">
<title>3,000 yomi&#45;&gt;project38</title>
<path fill="none" stroke="#000000" d="M904.3566,-1057.8213C929.8112,-1047.3566 965.242,-1032.7906 994.8422,-1020.6217"/>
<polygon fill="#000000" stroke="#000000" points="996.3097,-1023.8027 1004.2277,-1016.7632 993.648,-1017.3284 996.3097,-1023.8027"/>
</g>
<!-- 15,000 yomi -->
<g id="node25" class="node">
<title>15,000 yomi</title>
<ellipse fill="#b2dfee" stroke="#000000" cx="828.5" cy="-923.7401" rx="55.7903" ry="18"/>
<text text-anchor="middle" x="828.5" y="-920.0401" font-family="Times,serif" font-size="14.00" fill="#000000">15,000 yomi</text>
</g>
<!-- 4,500 yomi&#45;&gt;15,000 yomi -->
<g id="edge21" class="edge">
<title>4,500 yomi&#45;&gt;15,000 yomi</title>
<path fill="none" stroke="#000000" d="M860.333,-979.8268C855.3288,-971.0099 849.1945,-960.2018 843.651,-950.4348"/>
<polygon fill="#000000" stroke="#000000" points="846.5534,-948.4577 838.5734,-941.4885 840.4656,-951.913 846.5534,-948.4577"/>
</g>
<!-- 4,500 yomi&#45;&gt;project30 -->
<g id="edge52" class="edge">
<title>4,500 yomi&#45;&gt;project30</title>
<path fill="none" stroke="#000000" d="M878.9993,-979.9754C891.2719,-952.647 912.5,-898.3506 912.5,-849.7401 912.5,-849.7401 912.5,-849.7401 912.5,-632.7401 912.5,-592.7839 912.5,-546.6343 912.5,-517.331"/>
<polygon fill="#000000" stroke="#000000" points="916.0001,-516.9731 912.5,-506.9731 909.0001,-516.9731 916.0001,-516.9731"/>
</g>
<!-- 15,000 yomi&#45;&gt;project29 -->
<g id="edge49" class="edge">
<title>15,000 yomi&#45;&gt;project29</title>
<path fill="none" stroke="#000000" d="M809.0176,-906.577C798.6217,-897.4187 785.6126,-885.9584 774.0045,-875.7322"/>
<polygon fill="#000000" stroke="#000000" points="776.0586,-872.8773 766.2413,-868.8932 771.4313,-878.1298 776.0586,-872.8773"/>
</g>
<!-- $1 M -->
<g id="node26" class="node">
<title>$1 M</title>
<ellipse fill="#6e8b3d" stroke="#000000" cx="1091.5" cy="-1145.7401" rx="30.5947" ry="18"/>
<text text-anchor="middle" x="1091.5" y="-1142.0401" font-family="Times,serif" font-size="14.00" fill="#000000">$1 M</text>
</g>
<!-- $10 M -->
<g id="node27" class="node">
<title>$10 M</title>
<ellipse fill="#6e8b3d" stroke="#000000" cx="1031.5" cy="-1071.7401" rx="34.394" ry="18"/>
<text text-anchor="middle" x="1031.5" y="-1068.0401" font-family="Times,serif" font-size="14.00" fill="#000000">$10 M</text>
</g>
<!-- $1 M&#45;&gt;$10 M -->
<g id="edge22" class="edge">
<title>$1 M&#45;&gt;$10 M</title>
<path fill="none" stroke="#000000" d="M1078.1841,-1129.3171C1070.3157,-1119.6129 1060.2023,-1107.1396 1051.4014,-1096.2852"/>
<polygon fill="#000000" stroke="#000000" points="1054.0029,-1093.9364 1044.9862,-1088.3731 1048.5656,-1098.345 1054.0029,-1093.9364"/>
</g>
<!-- project37 -->
<g id="node35" class="node">
<title>project37</title>
<polygon fill="#6e8b3d" stroke="#000000" points="1221,-1090.7401 1084,-1090.7401 1084,-1052.7401 1221,-1052.7401 1221,-1090.7401"/>
<text text-anchor="middle" x="1152.5" y="-1075.5401" font-family="Times,serif" font-size="14.00" fill="#000000">Hostile Takeover</text>
<text text-anchor="middle" x="1152.5" y="-1060.5401" font-family="Times,serif" font-size="14.00" fill="#000000">(+1 trust, 5x demand)</text>
</g>
<!-- $1 M&#45;&gt;project37 -->
<g id="edge32" class="edge">
<title>$1 M&#45;&gt;project37</title>
<path fill="none" stroke="#000000" d="M1105.0379,-1129.3171C1112.405,-1120.38 1121.7081,-1109.0943 1130.1218,-1098.8875"/>
<polygon fill="#000000" stroke="#000000" points="1132.9647,-1100.9412 1136.6248,-1090.9986 1127.5633,-1096.4887 1132.9647,-1100.9412"/>
</g>
<!-- $10 M&#45;&gt;project38 -->
<g id="edge34" class="edge">
<title>$10 M&#45;&gt;project38</title>
<path fill="none" stroke="#000000" d="M1036.0994,-1053.8268C1038.19,-1045.6843 1040.7167,-1035.8435 1043.0662,-1026.6928"/>
<polygon fill="#000000" stroke="#000000" points="1046.514,-1027.3382 1045.6109,-1016.7819 1039.7339,-1025.5973 1046.514,-1027.3382"/>
</g>
<!-- $500,000 -->
<g id="node28" class="node">
<title>$500,000</title>
<ellipse fill="#6e8b3d" stroke="#000000" cx="236.5" cy="-342.7401" rx="44.393" ry="18"/>
<text text-anchor="middle" x="236.5" y="-339.0401" font-family="Times,serif" font-size="14.00" fill="#000000">$500,000</text>
</g>
<!-- 2x previous\ngift $$ -->
<g id="node29" class="node">
<title>2x previous\ngift $$</title>
<ellipse fill="#6e8b3d" stroke="#000000" cx="221.5" cy="-261.8701" rx="56.6372" ry="26.7407"/>
<text text-anchor="middle" x="221.5" y="-265.6701" font-family="Times,serif" font-size="14.00" fill="#000000">2x previous</text>
<text text-anchor="middle" x="221.5" y="-250.6701" font-family="Times,serif" font-size="14.00" fill="#000000">gift $$</text>
</g>
<!-- $500,000&#45;&gt;2x previous\ngift $$ -->
<g id="edge23" class="edge">
<title>$500,000&#45;&gt;2x previous\ngift $$</title>
<path fill="none" stroke="#000000" d="M233.0963,-324.3894C231.6769,-316.7373 229.9753,-307.563 228.3183,-298.6299"/>
<polygon fill="#000000" stroke="#000000" points="231.7491,-297.9346 226.484,-288.7407 224.8665,-299.2113 231.7491,-297.9346"/>
</g>
<!-- $500,000&#45;&gt;project40 -->
<g id="edge38" class="edge">
<title>$500,000&#45;&gt;project40</title>
<path fill="none" stroke="#000000" d="M261.2046,-327.7186C280.3044,-316.105 307.14,-299.7878 329.3185,-286.3023"/>
<polygon fill="#000000" stroke="#000000" points="331.1494,-289.2852 337.8755,-281.0992 327.5126,-283.3041 331.1494,-289.2852"/>
</g>
<!-- project40b -->
<g id="node38" class="node">
<title>project40b</title>
<polygon fill="#6e8b3d" stroke="#000000" points="397.5,-191.5 217.5,-191.5 217.5,-153.5 397.5,-153.5 397.5,-191.5"/>
<text text-anchor="middle" x="307.5" y="-176.3" font-family="Times,serif" font-size="14.00" fill="#000000">Another Token of Goodwill...</text>
<text text-anchor="middle" x="307.5" y="-161.3" font-family="Times,serif" font-size="14.00" fill="#000000">(+1 trust)</text>
</g>
<!-- 2x previous\ngift $$&#45;&gt;project40b -->
<g id="edge39" class="edge">
<title>2x previous\ngift $$&#45;&gt;project40b</title>
<path fill="none" stroke="#000000" d="M245.4558,-236.9755C256.7899,-225.1973 270.3361,-211.1203 281.8753,-199.1288"/>
<polygon fill="#000000" stroke="#000000" points="284.7131,-201.2275 289.125,-191.595 279.6691,-196.3738 284.7131,-201.2275"/>
</g>
<!-- project62 -->
<g id="node30" class="node">
<title>project62</title>
<polygon fill="#b2dfee" stroke="#000000" points="405,-1237.7401 252,-1237.7401 252,-1201.7401 405,-1201.7401 405,-1237.7401"/>
<text text-anchor="middle" x="328.5" y="-1216.0401" font-family="Times,serif" font-size="14.00" fill="#000000">New Strategy: GREEDY</text>
</g>
<!-- project62&#45;&gt;project63 -->
<g id="edge25" class="edge">
<title>project62&#45;&gt;project63</title>
<path fill="none" stroke="#000000" d="M328.5,-1201.5729C328.5,-1162.9377 328.5,-1072.3754 328.5,-1026.0786"/>
<polygon fill="#000000" stroke="#000000" points="332.0001,-1025.8469 328.5,-1015.847 325.0001,-1025.847 332.0001,-1025.8469"/>
</g>
<!-- project63&#45;&gt;project64 -->
<g id="edge27" class="edge">
<title>project63&#45;&gt;project64</title>
<path fill="none" stroke="#000000" d="M329.4888,-979.448C329.9344,-971.2037 330.4709,-961.2777 330.9669,-952.1024"/>
<polygon fill="#000000" stroke="#000000" points="334.4777,-951.9962 331.5226,-941.8218 327.4879,-951.6183 334.4777,-951.9962"/>
</g>
<!-- project64&#45;&gt;project65 -->
<g id="edge29" class="edge">
<title>project64&#45;&gt;project65</title>
<path fill="none" stroke="#000000" d="M334.4775,-905.448C335.3785,-897.114 336.4652,-887.0617 337.4661,-877.8034"/>
<polygon fill="#000000" stroke="#000000" points="340.95,-878.1401 338.5452,-867.8218 333.9906,-877.3877 340.95,-878.1401"/>
</g>
<!-- project65&#45;&gt;project66 -->
<g id="edge31" class="edge">
<title>project65&#45;&gt;project66</title>
<path fill="none" stroke="#000000" d="M340.7472,-831.6952C340.8578,-823.623 340.9907,-813.9165 341.1139,-804.9219"/>
<polygon fill="#000000" stroke="#000000" points="344.6148,-804.8775 341.2522,-794.8305 337.6154,-804.7816 344.6148,-804.8775"/>
</g>
<!-- project37&#45;&gt;project38 -->
<g id="edge35" class="edge">
<title>project37&#45;&gt;project38</title>
<path fill="none" stroke="#000000" d="M1126.2325,-1052.6833C1113.7187,-1043.6047 1098.5838,-1032.6244 1085.1437,-1022.8738"/>
<polygon fill="#000000" stroke="#000000" points="1087.1826,-1020.0289 1077.033,-1016.9896 1083.072,-1025.6949 1087.1826,-1020.0289"/>
</g>
<!-- project40&#45;&gt;project40b -->
<g id="edge40" class="edge">
<title>project40&#45;&gt;project40b</title>
<path fill="none" stroke="#000000" d="M356.0469,-242.4781C347.4577,-230.0971 336.1887,-213.8534 326.6703,-200.133"/>
<polygon fill="#000000" stroke="#000000" points="329.2897,-197.7685 320.7138,-191.5471 323.5382,-201.7586 329.2897,-197.7685"/>
</g>
<!-- project40b&#45;&gt;100 trust -->
<g id="edge41" class="edge">
<title>project40b&#45;&gt;100 trust</title>
<path fill="none" stroke="#000000" d="M307.5,-153.1856C307.5,-143.0549 307.5,-130.4533 307.5,-119.2481"/>
<polygon fill="#000000" stroke="#000000" points="311.0001,-119.059 307.5,-109.059 304.0001,-119.0591 311.0001,-119.059"/>
</g>
<!-- project70&#45;&gt;project35 -->
<g id="edge43" class="edge">
<title>project70&#45;&gt;project35</title>
<path fill="none" stroke="#000000" d="M132.0677,-324.3502C142.5716,-270.2066 173.4367,-111.1091 186.0426,-46.1308"/>
<polygon fill="#000000" stroke="#000000" points="189.5028,-46.6718 187.9715,-36.1882 182.6309,-45.3386 189.5028,-46.6718"/>
</g>
<!-- project27 -->
<g id="node41" class="node">
<title>project27</title>
<polygon fill="#ba55d3" stroke="#000000" points="819.5,-1238.7401 631.5,-1238.7401 631.5,-1200.7401 819.5,-1200.7401 819.5,-1238.7401"/>
<text text-anchor="middle" x="725.5" y="-1223.5401" font-family="Times,serif" font-size="14.00" fill="#000000">Coherent Extrapolated Volition</text>
<text text-anchor="middle" x="725.5" y="-1208.5401" font-family="Times,serif" font-size="14.00" fill="#000000">(+1 trust, a new era of trust)</text>
</g>
<!-- project27&#45;&gt;project28 -->
<g id="edge47" class="edge">
<title>project27&#45;&gt;project28</title>
<path fill="none" stroke="#000000" d="M722.2709,-1200.6708C716.7223,-1169.3554 704.3307,-1105.2664 687.5,-1052.7401 676.1351,-1017.2721 659.0006,-977.9903 647.0918,-952.2011"/>
<polygon fill="#000000" stroke="#000000" points="650.2057,-950.597 642.8065,-943.0139 643.8618,-953.556 650.2057,-950.597"/>
</g>
<!-- project27&#45;&gt;project29 -->
<g id="edge50" class="edge">
<title>project27&#45;&gt;project29</title>
<path fill="none" stroke="#000000" d="M729.5294,-1200.6822C735.1067,-1172.5954 744.5,-1118.3697 744.5,-1071.7401 744.5,-1071.7401 744.5,-1071.7401 744.5,-997.7401 744.5,-956.5487 744.5,-908.9086 744.5,-879.0497"/>
<polygon fill="#000000" stroke="#000000" points="748.0001,-878.8984 744.5,-868.8984 741.0001,-878.8984 748.0001,-878.8984"/>
</g>
<!-- project27&#45;&gt;project30 -->
<g id="edge53" class="edge">
<title>project27&#45;&gt;project30</title>
<path fill="none" stroke="#000000" d="M809.2817,-1200.703C873.2524,-1180.6311 950.5,-1141.8735 950.5,-1071.7401 950.5,-1071.7401 950.5,-1071.7401 950.5,-632.7401 950.5,-591.3034 935.7994,-545.3179 924.6851,-516.4721"/>
<polygon fill="#000000" stroke="#000000" points="927.8756,-515.023 920.9334,-507.0194 921.3693,-517.6053 927.8756,-515.023"/>
</g>
<!-- project27&#45;&gt;project31 -->
<g id="edge55" class="edge">
<title>project27&#45;&gt;project31</title>
<path fill="none" stroke="#000000" d="M708.7709,-1200.6947C686.0797,-1174.8617 645.4085,-1128.559 619.4744,-1099.0341"/>
<polygon fill="#000000" stroke="#000000" points="621.8067,-1096.3858 612.5777,-1091.1824 616.5475,-1101.0054 621.8067,-1096.3858"/>
</g>
<!-- pchip3 -->
<g id="node46" class="node">
<title>pchip3</title>
<polygon fill="#666666" stroke="#000000" points="234,-1237.7401 113,-1237.7401 113,-1201.7401 234,-1201.7401 234,-1237.7401"/>
<text text-anchor="middle" x="173.5" y="-1216.0401" font-family="Times,serif" font-size="14.00" fill="#ffffff">Photonic Chip (#3)</text>
</g>
<!-- pchip3&#45;&gt;pchip4 -->
<g id="edge57" class="edge">
<title>pchip3&#45;&gt;pchip4</title>
<path fill="none" stroke="#000000" d="M173.439,-1201.6696C173.2709,-1151.9222 172.8004,-1012.6544 172.5964,-952.2683"/>
<polygon fill="#000000" stroke="#000000" points="176.0954,-951.9384 172.5615,-941.9503 169.0954,-951.9621 176.0954,-951.9384"/>
</g>
<!-- pchip4&#45;&gt;pchip5 -->
<g id="edge59" class="edge">
<title>pchip4&#45;&gt;pchip5</title>
<path fill="none" stroke="#000000" d="M172.5,-905.448C172.5,-897.2037 172.5,-887.2777 172.5,-878.1024"/>
<polygon fill="#000000" stroke="#000000" points="176.0001,-877.8218 172.5,-867.8218 169.0001,-877.8219 176.0001,-877.8218"/>
</g>
<!-- pchip5&#45;&gt;pchip6 -->
<g id="edge61" class="edge">
<title>pchip5&#45;&gt;pchip6</title>
<path fill="none" stroke="#000000" d="M183.5479,-831.5155C196.4987,-811.4317 219.6393,-779.261 246.5,-758.7401 263.583,-745.6892 284.315,-735.0036 303.8048,-726.6837"/>
<polygon fill="#000000" stroke="#000000" points="305.34,-729.8366 313.2512,-722.7894 302.672,-723.365 305.34,-729.8366"/>
</g>
<!-- pchip6&#45;&gt;pchip7 -->
<g id="edge63" class="edge">
<title>pchip6&#45;&gt;pchip7</title>
<path fill="none" stroke="#000000" d="M368.5,-686.5715C368.5,-678.8711 368.5,-669.7145 368.5,-661.1567"/>
<polygon fill="#000000" stroke="#000000" points="372.0001,-661.1533 368.5,-651.1534 365.0001,-661.1534 372.0001,-661.1533"/>
</g>
<!-- pchip7&#45;&gt;pchip8 -->
<g id="edge65" class="edge">
<title>pchip7&#45;&gt;pchip8</title>
<path fill="none" stroke="#000000" d="M368.5,-614.5715C368.5,-606.8711 368.5,-597.7145 368.5,-589.1567"/>
<polygon fill="#000000" stroke="#000000" points="372.0001,-589.1533 368.5,-579.1534 365.0001,-589.1534 372.0001,-589.1533"/>
</g>
<!-- pchip8&#45;&gt;pchip9 -->
<g id="edge67" class="edge">
<title>pchip8&#45;&gt;pchip9</title>
<path fill="none" stroke="#000000" d="M368.5,-542.6952C368.5,-534.623 368.5,-524.9165 368.5,-515.9219"/>
<polygon fill="#000000" stroke="#000000" points="372.0001,-515.8304 368.5,-505.8305 365.0001,-515.8305 372.0001,-515.8304"/>
</g>
<!-- pchip9&#45;&gt;pchip10 -->
<g id="edge69" class="edge">
<title>pchip9&#45;&gt;pchip10</title>
<path fill="none" stroke="#000000" d="M368.0056,-469.6952C367.7845,-461.623 367.5185,-451.9165 367.2721,-442.9219"/>
<polygon fill="#000000" stroke="#000000" points="370.7683,-442.7308 366.9956,-432.8305 363.7709,-442.9226 370.7683,-442.7308"/>
</g>
</g>
</svg>
