<?xml version="1.0" encoding="UTF-8" standalone="no"?>
<!DOCTYPE svg PUBLIC "-//W3C//DTD SVG 1.1//EN"
 "http://www.w3.org/Graphics/SVG/1.1/DTD/svg11.dtd">
<!-- Generated by graphviz version 2.40.1 (20161225.0304)
 -->
<!-- Title: %3 Pages: 1 -->
<svg width="1213pt" height="1345pt"
 viewBox="0.00 0.00 1213.39 1344.74" xmlns="http://www.w3.org/2000/svg" xmlns:xlink="http://www.w3.org/1999/xlink">
<g id="graph0" class="graph" transform="scale(1 1) rotate(0) translate(4 1340.7401)">
<title>%3</title>
<polygon fill="#ffffff" stroke="transparent" points="-4,4 -4,-1340.7401 1209.3852,-1340.7401 1209.3852,4 -4,4"/>
<!-- s2_project35 -->
<g id="node1" class="node">
<title>s2_project35</title>
<polygon fill="#333333" stroke="#000000" points="578.0421,-1336.7401 420.0421,-1336.7401 420.0421,-1300.7401 578.0421,-1300.7401 578.0421,-1336.7401"/>
<text text-anchor="middle" x="499.0421" y="-1315.0401" font-family="Times,serif" font-size="14.00" fill="#cccccc">Release the HypnoDrones</text>
</g>
<!-- project18 -->
<g id="node17" class="node">
<title>project18</title>
<polygon fill="#9370db" stroke="#000000" points="713.0421,-1183.2401 519.0421,-1183.2401 519.0421,-1145.2401 713.0421,-1145.2401 713.0421,-1183.2401"/>
<text text-anchor="middle" x="616.0421" y="-1168.0401" font-family="Times,serif" font-size="14.00" fill="#000000">Töth Tubule Enfolding</text>
<text text-anchor="middle" x="616.0421" y="-1153.0401" font-family="Times,serif" font-size="14.00" fill="#000000">(Begin building with paperclips)</text>
</g>
<!-- s2_project35&#45;&gt;project18 -->
<g id="edge8" class="edge">
<title>s2_project35&#45;&gt;project18</title>
<path fill="none" stroke="#000000" d="M498.7494,-1300.5297C499.2935,-1280.7123 502.7727,-1248.8989 518.0421,-1226.7401 529.0075,-1210.8274 545.4829,-1198.0738 561.8115,-1188.3427"/>
<polygon fill="#000000" stroke="#000000" points="563.8469,-1191.2128 570.8319,-1183.2466 560.4037,-1185.1182 563.8469,-1191.2128"/>
</g>
<!-- s2_project17 -->
<g id="node2" class="node">
<title>s2_project17</title>
<polygon fill="#9370db" stroke="#000000" points="705.0421,-1264.7401 527.0421,-1264.7401 527.0421,-1226.7401 705.0421,-1226.7401 705.0421,-1264.7401"/>
<text text-anchor="middle" x="616.0421" y="-1249.5401" font-family="Times,serif" font-size="14.00" fill="#000000">The Toth Sausage Conjecture</text>
<text text-anchor="middle" x="616.0421" y="-1234.5401" font-family="Times,serif" font-size="14.00" fill="#000000">(+1 trust)</text>
</g>
<!-- s2_project17&#45;&gt;project18 -->
<g id="edge9" class="edge">
<title>s2_project17&#45;&gt;project18</title>
<path fill="none" stroke="#000000" d="M616.0421,-1226.4258C616.0421,-1216.5804 616.0421,-1204.4014 616.0421,-1193.4384"/>
<polygon fill="#000000" stroke="#000000" points="619.5422,-1193.4158 616.0421,-1183.4158 612.5422,-1193.4159 619.5422,-1193.4158"/>
</g>
<!-- s2_25kops -->
<g id="node3" class="node">
<title>s2_25kops</title>
<ellipse fill="none" stroke="#000000" cx="875.0421" cy="-1010.7401" rx="50.0912" ry="18"/>
<text text-anchor="middle" x="875.0421" y="-1007.0401" font-family="Times,serif" font-size="14.00" fill="#000000">25,000 ops</text>
</g>
<!-- project43 -->
<g id="node25" class="node">
<title>project43</title>
<polygon fill="#8fbc8f" stroke="#000000" points="811.0421,-955.7401 695.0421,-955.7401 695.0421,-919.7401 811.0421,-919.7401 811.0421,-955.7401"/>
<text text-anchor="middle" x="753.0421" y="-934.0401" font-family="Times,serif" font-size="14.00" fill="#000000">Harvester Drones </text>
</g>
<!-- s2_25kops&#45;&gt;project43 -->
<g id="edge17" class="edge">
<title>s2_25kops&#45;&gt;project43</title>
<path fill="none" stroke="#000000" d="M849.169,-995.2587C832.5035,-985.2867 810.5315,-972.1395 791.8011,-960.9319"/>
<polygon fill="#000000" stroke="#000000" points="793.5581,-957.9046 783.1798,-955.7734 789.9638,-963.9114 793.5581,-957.9046"/>
</g>
<!-- project44 -->
<g id="node26" class="node">
<title>project44</title>
<polygon fill="#8fbc8f" stroke="#000000" points="920.5421,-955.7401 829.5421,-955.7401 829.5421,-919.7401 920.5421,-919.7401 920.5421,-955.7401"/>
<text text-anchor="middle" x="875.0421" y="-934.0401" font-family="Times,serif" font-size="14.00" fill="#000000">Wire Drones </text>
</g>
<!-- s2_25kops&#45;&gt;project44 -->
<g id="edge19" class="edge">
<title>s2_25kops&#45;&gt;project44</title>
<path fill="none" stroke="#000000" d="M875.0421,-992.6952C875.0421,-984.623 875.0421,-974.9165 875.0421,-965.9219"/>
<polygon fill="#000000" stroke="#000000" points="878.5422,-965.8304 875.0421,-955.8305 871.5422,-965.8305 878.5422,-965.8304"/>
</g>
<!-- s2_35kops -->
<g id="node4" class="node">
<title>s2_35kops</title>
<ellipse fill="none" stroke="#000000" cx="847.0421" cy="-1083.7401" rx="50.0912" ry="18"/>
<text text-anchor="middle" x="847.0421" y="-1080.0401" font-family="Times,serif" font-size="14.00" fill="#000000">35,000 ops</text>
</g>
<!-- project41 -->
<g id="node24" class="node">
<title>project41</title>
<polygon fill="#8fbc8f" stroke="#000000" points="806.5421,-1029.7401 605.5421,-1029.7401 605.5421,-991.7401 806.5421,-991.7401 806.5421,-1029.7401"/>
<text text-anchor="middle" x="706.0421" y="-1014.5401" font-family="Times,serif" font-size="14.00" fill="#000000">Nanoscale Wire Production</text>
<text text-anchor="middle" x="706.0421" y="-999.5401" font-family="Times,serif" font-size="14.00" fill="#000000">(Tech to harvest matter into wire)</text>
</g>
<!-- s2_35kops&#45;&gt;project41 -->
<g id="edge15" class="edge">
<title>s2_35kops&#45;&gt;project41</title>
<path fill="none" stroke="#000000" d="M818.1684,-1068.7913C799.1339,-1058.9366 773.7922,-1045.8164 752.0166,-1034.5425"/>
<polygon fill="#000000" stroke="#000000" points="753.421,-1031.3284 742.9313,-1029.8388 750.2026,-1037.5447 753.421,-1031.3284"/>
</g>
<!-- project45 -->
<g id="node35" class="node">
<title>project45</title>
<polygon fill="#d3d3d3" stroke="#000000" points="923.5421,-883.7401 826.5421,-883.7401 826.5421,-847.7401 923.5421,-847.7401 923.5421,-883.7401"/>
<text text-anchor="middle" x="875.0421" y="-862.0401" font-family="Times,serif" font-size="14.00" fill="#000000">Clip Factories </text>
</g>
<!-- s2_35kops&#45;&gt;project45 -->
<g id="edge29" class="edge">
<title>s2_35kops&#45;&gt;project45</title>
<path fill="none" stroke="#000000" d="M883.1377,-1071.2505C901.9075,-1062.7018 923.1533,-1049.3145 934.0421,-1029.7401 941.6641,-1016.0384 938.2358,-937.8428 930.0421,-919.7401 925.0915,-908.8026 916.8555,-898.8989 908.2451,-890.6478"/>
<polygon fill="#000000" stroke="#000000" points="910.4357,-887.911 900.655,-883.8379 905.7609,-893.1213 910.4357,-887.911"/>
</g>
<!-- s2_40kops -->
<g id="node5" class="node">
<title>s2_40kops</title>
<ellipse fill="none" stroke="#000000" cx="781.0421" cy="-1164.2401" rx="50.0912" ry="18"/>
<text text-anchor="middle" x="781.0421" y="-1160.5401" font-family="Times,serif" font-size="14.00" fill="#000000">40,000 ops</text>
</g>
<!-- project127 -->
<g id="node22" class="node">
<title>project127</title>
<polygon fill="#ffd700" stroke="#000000" points="747.5421,-1101.7401 664.5421,-1101.7401 664.5421,-1065.7401 747.5421,-1065.7401 747.5421,-1101.7401"/>
<text text-anchor="middle" x="706.0421" y="-1080.0401" font-family="Times,serif" font-size="14.00" fill="#000000">Power Grid </text>
</g>
<!-- s2_40kops&#45;&gt;project127 -->
<g id="edge11" class="edge">
<title>s2_40kops&#45;&gt;project127</title>
<path fill="none" stroke="#000000" d="M765.1365,-1147.1681C754.8812,-1136.1608 741.3574,-1121.6452 729.8354,-1109.2782"/>
<polygon fill="#000000" stroke="#000000" points="732.3446,-1106.837 722.9671,-1101.9063 727.223,-1111.6087 732.3446,-1106.837"/>
</g>
<!-- s2_45kops -->
<g id="node6" class="node">
<title>s2_45kops</title>
<ellipse fill="none" stroke="#000000" cx="773.0421" cy="-1245.7401" rx="50.0912" ry="18"/>
<text text-anchor="middle" x="773.0421" y="-1242.0401" font-family="Times,serif" font-size="14.00" fill="#000000">45,000 ops</text>
</g>
<!-- s2_45kops&#45;&gt;project18 -->
<g id="edge10" class="edge">
<title>s2_45kops&#45;&gt;project18</title>
<path fill="none" stroke="#000000" d="M744.2459,-1230.7918C721.2022,-1218.8296 688.4511,-1201.8282 661.8199,-1188.0038"/>
<polygon fill="#000000" stroke="#000000" points="663.1693,-1184.7608 652.6813,-1183.2598 659.9442,-1190.9736 663.1693,-1184.7608"/>
</g>
<!-- s2_25k_creat -->
<g id="node7" class="node">
<title>s2_25k_creat</title>
<ellipse fill="#9370db" stroke="#000000" cx="978.0421" cy="-1245.7401" rx="54.6905" ry="18"/>
<text text-anchor="middle" x="978.0421" y="-1242.0401" font-family="Times,serif" font-size="14.00" fill="#000000">25,000 creat</text>
</g>
<!-- s2_50k_creat -->
<g id="node8" class="node">
<title>s2_50k_creat</title>
<ellipse fill="#9370db" stroke="#000000" cx="978.0421" cy="-1164.2401" rx="54.6905" ry="18"/>
<text text-anchor="middle" x="978.0421" y="-1160.5401" font-family="Times,serif" font-size="14.00" fill="#000000">50,000 creat</text>
</g>
<!-- s2_25k_creat&#45;&gt;s2_50k_creat -->
<g id="edge1" class="edge">
<title>s2_25k_creat&#45;&gt;s2_50k_creat</title>
<path fill="none" stroke="#000000" d="M978.0421,-1227.6526C978.0421,-1217.3121 978.0421,-1204.117 978.0421,-1192.4438"/>
<polygon fill="#000000" stroke="#000000" points="981.5422,-1192.277 978.0421,-1182.277 974.5422,-1192.2771 981.5422,-1192.277"/>
</g>
<!-- s2_project119 -->
<g id="node10" class="node">
<title>s2_project119</title>
<polygon fill="#b2dfee" stroke="#000000" points="1184.5421,-1190.7401 1057.5421,-1190.7401 1057.5421,-1137.7401 1184.5421,-1137.7401 1184.5421,-1190.7401"/>
<text text-anchor="middle" x="1121.0421" y="-1175.5401" font-family="Times,serif" font-size="14.00" fill="#000000">Theory of Mind</text>
<text text-anchor="middle" x="1121.0421" y="-1160.5401" font-family="Times,serif" font-size="14.00" fill="#000000">(Double tournament</text>
<text text-anchor="middle" x="1121.0421" y="-1145.5401" font-family="Times,serif" font-size="14.00" fill="#000000"> cost and reward)</text>
</g>
<!-- s2_25k_creat&#45;&gt;s2_project119 -->
<g id="edge2" class="edge">
<title>s2_25k_creat&#45;&gt;s2_project119</title>
<path fill="none" stroke="#000000" d="M1005.6139,-1230.0261C1022.5815,-1220.3557 1044.9378,-1207.6142 1065.4531,-1195.922"/>
<polygon fill="#000000" stroke="#000000" points="1067.4614,-1198.8059 1074.4164,-1190.8135 1063.9953,-1192.7243 1067.4614,-1198.8059"/>
</g>
<!-- s2_project118 -->
<g id="node11" class="node">
<title>s2_project118</title>
<polygon fill="#b2dfee" stroke="#000000" points="1024.5421,-1101.7401 931.5421,-1101.7401 931.5421,-1065.7401 1024.5421,-1065.7401 1024.5421,-1101.7401"/>
<text text-anchor="middle" x="978.0421" y="-1080.0401" font-family="Times,serif" font-size="14.00" fill="#000000">AutoTourney </text>
</g>
<!-- s2_50k_creat&#45;&gt;s2_project118 -->
<g id="edge4" class="edge">
<title>s2_50k_creat&#45;&gt;s2_project118</title>
<path fill="none" stroke="#000000" d="M978.0421,-1145.9734C978.0421,-1135.9898 978.0421,-1123.4031 978.0421,-1112.1659"/>
<polygon fill="#000000" stroke="#000000" points="981.5422,-1111.9345 978.0421,-1101.9345 974.5422,-1111.9346 981.5422,-1111.9345"/>
</g>
<!-- s2_all_strats -->
<g id="node9" class="node">
<title>s2_all_strats</title>
<ellipse fill="#b2dfee" stroke="#000000" cx="1128.0421" cy="-1245.7401" rx="77.1866" ry="18"/>
<text text-anchor="middle" x="1128.0421" y="-1242.0401" font-family="Times,serif" font-size="14.00" fill="#000000">All strats unlocked</text>
</g>
<!-- s2_all_strats&#45;&gt;s2_project119 -->
<g id="edge3" class="edge">
<title>s2_all_strats&#45;&gt;s2_project119</title>
<path fill="none" stroke="#000000" d="M1126.4886,-1227.6526C1125.8155,-1219.8159 1125.0016,-1210.3396 1124.2105,-1201.1288"/>
<polygon fill="#000000" stroke="#000000" points="1127.6787,-1200.6077 1123.3357,-1190.9439 1120.7043,-1201.2068 1127.6787,-1200.6077"/>
</g>
<!-- 80,000 ops -->
<g id="node12" class="node">
<title>80,000 ops</title>
<ellipse fill="none" stroke="#000000" cx="713.0421" cy="-488.7401" rx="50.0912" ry="18"/>
<text text-anchor="middle" x="713.0421" y="-485.0401" font-family="Times,serif" font-size="14.00" fill="#000000">80,000 ops</text>
</g>
<!-- 85,000 ops -->
<g id="node13" class="node">
<title>85,000 ops</title>
<ellipse fill="none" stroke="#000000" cx="713.0421" cy="-415.7401" rx="50.0912" ry="18"/>
<text text-anchor="middle" x="713.0421" y="-412.0401" font-family="Times,serif" font-size="14.00" fill="#000000">85,000 ops</text>
</g>
<!-- 80,000 ops&#45;&gt;85,000 ops -->
<g id="edge5" class="edge">
<title>80,000 ops&#45;&gt;85,000 ops</title>
<path fill="none" stroke="#000000" d="M713.0421,-470.6952C713.0421,-462.623 713.0421,-452.9165 713.0421,-443.9219"/>
<polygon fill="#000000" stroke="#000000" points="716.5422,-443.8304 713.0421,-433.8305 709.5422,-443.8305 716.5422,-443.8304"/>
</g>
<!-- project110 -->
<g id="node31" class="node">
<title>project110</title>
<polygon fill="#8fbc8f" stroke="#000000" points="993.0421,-434.7401 781.0421,-434.7401 781.0421,-396.7401 993.0421,-396.7401 993.0421,-434.7401"/>
<text text-anchor="middle" x="887.0421" y="-419.5401" font-family="Times,serif" font-size="14.00" fill="#000000">Drone flocking: collision avoidance</text>
<text text-anchor="middle" x="887.0421" y="-404.5401" font-family="Times,serif" font-size="14.00" fill="#000000">(100x drone perf.)</text>
</g>
<!-- 80,000 ops&#45;&gt;project110 -->
<g id="edge21" class="edge">
<title>80,000 ops&#45;&gt;project110</title>
<path fill="none" stroke="#000000" d="M745.7702,-475.0094C770.0929,-464.805 803.8383,-450.6474 832.2486,-438.7282"/>
<polygon fill="#000000" stroke="#000000" points="833.7903,-441.877 841.6576,-434.7807 831.0822,-435.4221 833.7903,-441.877"/>
</g>
<!-- project100 -->
<g id="node39" class="node">
<title>project100</title>
<polygon fill="#d3d3d3" stroke="#000000" points="645.0421,-434.7401 521.0421,-434.7401 521.0421,-396.7401 645.0421,-396.7401 645.0421,-434.7401"/>
<text text-anchor="middle" x="583.0421" y="-419.5401" font-family="Times,serif" font-size="14.00" fill="#000000">Upgraded Factories</text>
<text text-anchor="middle" x="583.0421" y="-404.5401" font-family="Times,serif" font-size="14.00" fill="#000000">(100x factory perf.)</text>
</g>
<!-- 80,000 ops&#45;&gt;project100 -->
<g id="edge32" class="edge">
<title>80,000 ops&#45;&gt;project100</title>
<path fill="none" stroke="#000000" d="M685.7898,-473.4369C668.4864,-463.7204 645.7213,-450.9369 626.0181,-439.8728"/>
<polygon fill="#000000" stroke="#000000" points="627.6444,-436.772 617.2113,-434.9275 624.217,-442.8755 627.6444,-436.772"/>
</g>
<!-- 100,000 ops -->
<g id="node14" class="node">
<title>100,000 ops</title>
<ellipse fill="none" stroke="#000000" cx="713.0421" cy="-342.7401" rx="53.8905" ry="18"/>
<text text-anchor="middle" x="713.0421" y="-339.0401" font-family="Times,serif" font-size="14.00" fill="#000000">100,000 ops</text>
</g>
<!-- 85,000 ops&#45;&gt;100,000 ops -->
<g id="edge6" class="edge">
<title>85,000 ops&#45;&gt;100,000 ops</title>
<path fill="none" stroke="#000000" d="M713.0421,-397.6952C713.0421,-389.623 713.0421,-379.9165 713.0421,-370.9219"/>
<polygon fill="#000000" stroke="#000000" points="716.5422,-370.8304 713.0421,-360.8305 709.5422,-370.8305 716.5422,-370.8304"/>
</g>
<!-- project101 -->
<g id="node40" class="node">
<title>project101</title>
<polygon fill="#d3d3d3" stroke="#000000" points="470.0421,-288.7401 336.0421,-288.7401 336.0421,-250.7401 470.0421,-250.7401 470.0421,-288.7401"/>
<text text-anchor="middle" x="403.0421" y="-273.5401" font-family="Times,serif" font-size="14.00" fill="#000000">Hyperspeed Factories</text>
<text text-anchor="middle" x="403.0421" y="-258.5401" font-family="Times,serif" font-size="14.00" fill="#000000">(1000x factory perf.)</text>
</g>
<!-- 85,000 ops&#45;&gt;project101 -->
<g id="edge34" class="edge">
<title>85,000 ops&#45;&gt;project101</title>
<path fill="none" stroke="#000000" d="M682.4697,-401.3415C628.8924,-376.1083 517.5855,-323.6863 452.7893,-293.1695"/>
<polygon fill="#000000" stroke="#000000" points="454.1173,-289.9262 443.5791,-288.8318 451.1347,-296.259 454.1173,-289.9262"/>
</g>
<!-- 120,000 ops -->
<g id="node15" class="node">
<title>120,000 ops</title>
<ellipse fill="none" stroke="#000000" cx="759.0421" cy="-188.2401" rx="53.8905" ry="18"/>
<text text-anchor="middle" x="759.0421" y="-184.5401" font-family="Times,serif" font-size="14.00" fill="#000000">120,000 ops</text>
</g>
<!-- 100,000 ops&#45;&gt;120,000 ops -->
<g id="edge7" class="edge">
<title>100,000 ops&#45;&gt;120,000 ops</title>
<path fill="none" stroke="#000000" d="M745.8416,-328.1632C761.6663,-319.2427 779.118,-306.162 788.0421,-288.7401 800.1581,-265.0869 788.9448,-235.6343 777.1155,-214.7424"/>
<polygon fill="#000000" stroke="#000000" points="780.0541,-212.8376 771.8971,-206.0765 774.0575,-216.4488 780.0541,-212.8376"/>
</g>
<!-- project111 -->
<g id="node32" class="node">
<title>project111</title>
<polygon fill="#8fbc8f" stroke="#000000" points="649.5421,-288.7401 488.5421,-288.7401 488.5421,-250.7401 649.5421,-250.7401 649.5421,-288.7401"/>
<text text-anchor="middle" x="569.0421" y="-273.5401" font-family="Times,serif" font-size="14.00" fill="#000000">Drone flocking: alignment</text>
<text text-anchor="middle" x="569.0421" y="-258.5401" font-family="Times,serif" font-size="14.00" fill="#000000">(1,000x drone perf.)</text>
</g>
<!-- 100,000 ops&#45;&gt;project111 -->
<g id="edge23" class="edge">
<title>100,000 ops&#45;&gt;project111</title>
<path fill="none" stroke="#000000" d="M683.2052,-327.6145C663.6561,-317.7041 637.704,-304.5479 615.4839,-293.2835"/>
<polygon fill="#000000" stroke="#000000" points="617.0406,-290.1487 606.5386,-288.7488 613.8754,-296.3922 617.0406,-290.1487"/>
</g>
<!-- project46 -->
<g id="node43" class="node">
<title>project46</title>
<polygon fill="#333333" stroke="#000000" points="605.0421,-36 485.0421,-36 485.0421,0 605.0421,0 605.0421,-36"/>
<text text-anchor="middle" x="545.0421" y="-14.3" font-family="Times,serif" font-size="14.00" fill="#cccccc">Space Exploration </text>
</g>
<!-- 120,000 ops&#45;&gt;project46 -->
<g id="edge37" class="edge">
<title>120,000 ops&#45;&gt;project46</title>
<path fill="none" stroke="#000000" d="M715.3313,-177.5619C683.6181,-168.0884 641.1738,-151.659 611.0421,-125.7401 597.3714,-113.9808 574.0371,-72.886 559.0908,-44.9871"/>
<polygon fill="#000000" stroke="#000000" points="562.1498,-43.2848 554.3697,-36.0931 555.9669,-46.5669 562.1498,-43.2848"/>
</g>
<!-- 20,000 creat -->
<g id="node16" class="node">
<title>20,000 creat</title>
<ellipse fill="#9370db" stroke="#000000" cx="937.0421" cy="-649.7401" rx="54.6905" ry="18"/>
<text text-anchor="middle" x="937.0421" y="-646.0401" font-family="Times,serif" font-size="14.00" fill="#000000">20,000 creat</text>
</g>
<!-- project125 -->
<g id="node23" class="node">
<title>project125</title>
<polygon fill="#ffd700" stroke="#000000" points="979.5421,-595.7401 858.5421,-595.7401 858.5421,-542.7401 979.5421,-542.7401 979.5421,-595.7401"/>
<text text-anchor="middle" x="919.0421" y="-580.5401" font-family="Times,serif" font-size="14.00" fill="#000000">Momentum</text>
<text text-anchor="middle" x="919.0421" y="-565.5401" font-family="Times,serif" font-size="14.00" fill="#000000">(All perf. increases</text>
<text text-anchor="middle" x="919.0421" y="-550.5401" font-family="Times,serif" font-size="14.00" fill="#000000">while powered)</text>
</g>
<!-- 20,000 creat&#45;&gt;project125 -->
<g id="edge13" class="edge">
<title>20,000 creat&#45;&gt;project125</title>
<path fill="none" stroke="#000000" d="M932.9576,-631.4734C931.2544,-623.8563 929.2124,-614.724 927.2241,-605.8318"/>
<polygon fill="#000000" stroke="#000000" points="930.6208,-604.983 925.0229,-595.9878 923.7895,-606.5106 930.6208,-604.983"/>
</g>
<!-- project18&#45;&gt;project127 -->
<g id="edge12" class="edge">
<title>project18&#45;&gt;project127</title>
<path fill="none" stroke="#000000" d="M637.3708,-1145.1627C649.51,-1134.3049 664.8619,-1120.5735 677.9704,-1108.8487"/>
<polygon fill="#000000" stroke="#000000" points="680.6734,-1111.1268 685.7935,-1101.8513 676.0066,-1105.9094 680.6734,-1111.1268"/>
</g>
<!-- 36,000 yomi -->
<g id="node18" class="node">
<title>36,000 yomi</title>
<ellipse fill="#b2dfee" stroke="#000000" cx="1072.0421" cy="-721.7401" rx="55.7903" ry="18"/>
<text text-anchor="middle" x="1072.0421" y="-718.0401" font-family="Times,serif" font-size="14.00" fill="#000000">36,000 yomi</text>
</g>
<!-- project126 -->
<g id="node34" class="node">
<title>project126</title>
<polygon fill="#8fbc8f" stroke="#000000" points="1134.5421,-667.7401 1009.5421,-667.7401 1009.5421,-631.7401 1134.5421,-631.7401 1134.5421,-667.7401"/>
<text text-anchor="middle" x="1072.0421" y="-646.0401" font-family="Times,serif" font-size="14.00" fill="#000000">Swarm Computing </text>
</g>
<!-- 36,000 yomi&#45;&gt;project126 -->
<g id="edge27" class="edge">
<title>36,000 yomi&#45;&gt;project126</title>
<path fill="none" stroke="#000000" d="M1072.0421,-703.5715C1072.0421,-695.8711 1072.0421,-686.7145 1072.0421,-678.1567"/>
<polygon fill="#000000" stroke="#000000" points="1075.5422,-678.1533 1072.0421,-668.1534 1068.5422,-678.1534 1075.5422,-678.1533"/>
</g>
<!-- 50,000 yomi -->
<g id="node19" class="node">
<title>50,000 yomi</title>
<ellipse fill="#b2dfee" stroke="#000000" cx="723.0421" cy="-269.7401" rx="55.7903" ry="18"/>
<text text-anchor="middle" x="723.0421" y="-266.0401" font-family="Times,serif" font-size="14.00" fill="#000000">50,000 yomi</text>
</g>
<!-- project112 -->
<g id="node33" class="node">
<title>project112</title>
<polygon fill="#8fbc8f" stroke="#000000" points="639.5421,-214.7401 412.5421,-214.7401 412.5421,-161.7401 639.5421,-161.7401 639.5421,-214.7401"/>
<text text-anchor="middle" x="526.0421" y="-199.5401" font-family="Times,serif" font-size="14.00" fill="#000000">Drone Flocking: Adversarial Cohesion</text>
<text text-anchor="middle" x="526.0421" y="-184.5401" font-family="Times,serif" font-size="14.00" fill="#000000">(every drone doubles</text>
<text text-anchor="middle" x="526.0421" y="-169.5401" font-family="Times,serif" font-size="14.00" fill="#000000"> every other drone perf.)</text>
</g>
<!-- 50,000 yomi&#45;&gt;project112 -->
<g id="edge25" class="edge">
<title>50,000 yomi&#45;&gt;project112</title>
<path fill="none" stroke="#000000" d="M688.2759,-255.3572C663.7507,-245.2109 629.9873,-231.2428 599.6102,-218.6757"/>
<polygon fill="#000000" stroke="#000000" points="600.884,-215.415 590.3055,-214.8263 598.208,-221.8833 600.884,-215.415"/>
</g>
<!-- s2_ultimate_power -->
<g id="node20" class="node">
<title>s2_ultimate_power</title>
<ellipse fill="#ffd700" stroke="#000000" cx="686.0421" cy="-98.8701" rx="66.4361" ry="26.7407"/>
<text text-anchor="middle" x="686.0421" y="-102.6701" font-family="Times,serif" font-size="14.00" fill="#000000">10,000,000</text>
<text text-anchor="middle" x="686.0421" y="-87.6701" font-family="Times,serif" font-size="14.00" fill="#000000"> MW&#45;seconds</text>
</g>
<!-- s2_ultimate_power&#45;&gt;project46 -->
<g id="edge38" class="edge">
<title>s2_ultimate_power&#45;&gt;project46</title>
<path fill="none" stroke="#000000" d="M647.5132,-76.772C628.3671,-65.7907 605.2296,-52.5204 585.7889,-41.3702"/>
<polygon fill="#000000" stroke="#000000" points="587.2769,-38.1889 576.8611,-36.2497 583.7942,-44.261 587.2769,-38.1889"/>
</g>
<!-- 30 solar farms -->
<g id="node21" class="node">
<title>30 solar farms</title>
<ellipse fill="#ffd700" stroke="#000000" cx="803.0421" cy="-649.7401" rx="61.99" ry="18"/>
<text text-anchor="middle" x="803.0421" y="-646.0401" font-family="Times,serif" font-size="14.00" fill="#000000">30 solar farms</text>
</g>
<!-- 30 solar farms&#45;&gt;project125 -->
<g id="edge14" class="edge">
<title>30 solar farms&#45;&gt;project125</title>
<path fill="none" stroke="#000000" d="M827.0774,-633.0605C840.0676,-624.0457 856.5676,-612.5953 871.9947,-601.8894"/>
<polygon fill="#000000" stroke="#000000" points="874.2058,-604.6152 880.4259,-596.0385 870.2148,-598.8644 874.2058,-604.6152"/>
</g>
<!-- project127&#45;&gt;project41 -->
<g id="edge16" class="edge">
<title>project127&#45;&gt;project41</title>
<path fill="none" stroke="#000000" d="M706.0421,-1065.6952C706.0421,-1057.9508 706.0421,-1048.7023 706.0421,-1040.0212"/>
<polygon fill="#000000" stroke="#000000" points="709.5422,-1039.8529 706.0421,-1029.8529 702.5422,-1039.853 709.5422,-1039.8529"/>
</g>
<!-- project41&#45;&gt;project43 -->
<g id="edge18" class="edge">
<title>project41&#45;&gt;project43</title>
<path fill="none" stroke="#000000" d="M718.3908,-991.5602C723.6944,-983.3228 729.9844,-973.5531 735.7402,-964.6132"/>
<polygon fill="#000000" stroke="#000000" points="738.791,-966.3402 741.2616,-956.0375 732.9054,-962.5508 738.791,-966.3402"/>
</g>
<!-- project41&#45;&gt;project44 -->
<g id="edge20" class="edge">
<title>project41&#45;&gt;project44</title>
<path fill="none" stroke="#000000" d="M750.4449,-991.5602C772.9648,-981.8327 800.4311,-969.9685 823.8393,-959.8573"/>
<polygon fill="#000000" stroke="#000000" points="825.4678,-962.9665 833.26,-955.788 822.6919,-956.5404 825.4678,-962.9665"/>
</g>
<!-- project43&#45;&gt;project45 -->
<g id="edge30" class="edge">
<title>project43&#45;&gt;project45</title>
<path fill="none" stroke="#000000" d="M783.8279,-919.5715C799.4324,-910.3622 818.5661,-899.0702 835.2724,-889.2107"/>
<polygon fill="#000000" stroke="#000000" points="837.433,-891.9998 844.2662,-883.9029 833.8752,-885.9713 837.433,-891.9998"/>
</g>
<!-- project44&#45;&gt;project45 -->
<g id="edge31" class="edge">
<title>project44&#45;&gt;project45</title>
<path fill="none" stroke="#000000" d="M875.0421,-919.5715C875.0421,-911.8711 875.0421,-902.7145 875.0421,-894.1567"/>
<polygon fill="#000000" stroke="#000000" points="878.5422,-894.1533 875.0421,-884.1534 871.5422,-894.1534 878.5422,-894.1533"/>
</g>
<!-- 200 drones -->
<g id="node27" class="node">
<title>200 drones</title>
<ellipse fill="#8fbc8f" stroke="#000000" cx="946.0421" cy="-721.7401" rx="50.0912" ry="18"/>
<text text-anchor="middle" x="946.0421" y="-718.0401" font-family="Times,serif" font-size="14.00" fill="#000000">200 drones</text>
</g>
<!-- 200 drones&#45;&gt;project126 -->
<g id="edge28" class="edge">
<title>200 drones&#45;&gt;project126</title>
<path fill="none" stroke="#000000" d="M972.7635,-706.4708C989.8507,-696.7066 1012.3392,-683.856 1031.5913,-672.8549"/>
<polygon fill="#000000" stroke="#000000" points="1033.5144,-675.7871 1040.4604,-667.7868 1030.0414,-669.7094 1033.5144,-675.7871"/>
</g>
<!-- 500 drones -->
<g id="node28" class="node">
<title>500 drones</title>
<ellipse fill="#8fbc8f" stroke="#000000" cx="773.0421" cy="-569.2401" rx="50.0912" ry="18"/>
<text text-anchor="middle" x="773.0421" y="-565.5401" font-family="Times,serif" font-size="14.00" fill="#000000">500 drones</text>
</g>
<!-- 500 drones&#45;&gt;project110 -->
<g id="edge22" class="edge">
<title>500 drones&#45;&gt;project110</title>
<path fill="none" stroke="#000000" d="M786.1193,-551.6317C805.7921,-525.1425 843.1764,-474.8049 866.5087,-443.3882"/>
<polygon fill="#000000" stroke="#000000" points="869.5381,-445.1794 872.6905,-435.0644 863.9184,-441.0057 869.5381,-445.1794"/>
</g>
<!-- 5,000 drones -->
<g id="node29" class="node">
<title>5,000 drones</title>
<ellipse fill="#8fbc8f" stroke="#000000" cx="446.0421" cy="-415.7401" rx="56.59" ry="18"/>
<text text-anchor="middle" x="446.0421" y="-412.0401" font-family="Times,serif" font-size="14.00" fill="#000000">5,000 drones</text>
</g>
<!-- 5,000 drones&#45;&gt;project111 -->
<g id="edge24" class="edge">
<title>5,000 drones&#45;&gt;project111</title>
<path fill="none" stroke="#000000" d="M460.8788,-398.1291C482.1378,-372.8948 521.4436,-326.2392 546.3634,-296.6595"/>
<polygon fill="#000000" stroke="#000000" points="549.2174,-298.7041 552.9837,-288.8013 543.864,-294.194 549.2174,-298.7041"/>
</g>
<!-- 50,000 drones -->
<g id="node30" class="node">
<title>50,000 drones</title>
<ellipse fill="#8fbc8f" stroke="#000000" cx="257.0421" cy="-269.7401" rx="61.1893" ry="18"/>
<text text-anchor="middle" x="257.0421" y="-266.0401" font-family="Times,serif" font-size="14.00" fill="#000000">50,000 drones</text>
</g>
<!-- 50,000 drones&#45;&gt;project112 -->
<g id="edge26" class="edge">
<title>50,000 drones&#45;&gt;project112</title>
<path fill="none" stroke="#000000" d="M299.6659,-256.8262C334.3087,-246.3304 384.5282,-231.1152 428.8696,-217.6809"/>
<polygon fill="#000000" stroke="#000000" points="429.9714,-221.0042 438.5269,-214.7549 427.9416,-214.305 429.9714,-221.0042"/>
</g>
<!-- 2 trillion clips -->
<g id="node44" class="node">
<title>2 trillion clips</title>
<ellipse fill="#d3d3d3" stroke="#000000" cx="875.0421" cy="-793.7401" rx="60.3893" ry="18"/>
<text text-anchor="middle" x="875.0421" y="-790.0401" font-family="Times,serif" font-size="14.00" fill="#000000">2 trillion clips</text>
</g>
<!-- project45&#45;&gt;2 trillion clips -->
<g id="edge50" class="edge">
<title>project45&#45;&gt;2 trillion clips</title>
<path fill="none" stroke="#000000" d="M875.0421,-847.5715C875.0421,-839.8711 875.0421,-830.7145 875.0421,-822.1567"/>
<polygon fill="#000000" stroke="#000000" points="878.5422,-822.1533 875.0421,-812.1534 871.5422,-822.1534 878.5422,-822.1533"/>
</g>
<!-- 10 factories -->
<g id="node36" class="node">
<title>10 factories</title>
<ellipse fill="#d3d3d3" stroke="#000000" cx="588.0421" cy="-488.7401" rx="51.9908" ry="18"/>
<text text-anchor="middle" x="588.0421" y="-485.0401" font-family="Times,serif" font-size="14.00" fill="#000000">10 factories</text>
</g>
<!-- 10 factories&#45;&gt;project100 -->
<g id="edge33" class="edge">
<title>10 factories&#45;&gt;project100</title>
<path fill="none" stroke="#000000" d="M586.8061,-470.6952C586.2757,-462.9508 585.6422,-453.7023 585.0477,-445.0212"/>
<polygon fill="#000000" stroke="#000000" points="588.5264,-444.5904 584.3512,-434.8529 581.5428,-445.0688 588.5264,-444.5904"/>
</g>
<!-- 20 factories -->
<g id="node37" class="node">
<title>20 factories</title>
<ellipse fill="#d3d3d3" stroke="#000000" cx="403.0421" cy="-342.7401" rx="51.9908" ry="18"/>
<text text-anchor="middle" x="403.0421" y="-339.0401" font-family="Times,serif" font-size="14.00" fill="#000000">20 factories</text>
</g>
<!-- 20 factories&#45;&gt;project101 -->
<g id="edge35" class="edge">
<title>20 factories&#45;&gt;project101</title>
<path fill="none" stroke="#000000" d="M403.0421,-324.6952C403.0421,-316.9508 403.0421,-307.7023 403.0421,-299.0212"/>
<polygon fill="#000000" stroke="#000000" points="406.5422,-298.8529 403.0421,-288.8529 399.5422,-298.853 406.5422,-298.8529"/>
</g>
<!-- 50 factories -->
<g id="node38" class="node">
<title>50 factories</title>
<ellipse fill="#d3d3d3" stroke="#000000" cx="89.0421" cy="-188.2401" rx="51.9908" ry="18"/>
<text text-anchor="middle" x="89.0421" y="-184.5401" font-family="Times,serif" font-size="14.00" fill="#000000">50 factories</text>
</g>
<!-- project102 -->
<g id="node41" class="node">
<title>project102</title>
<polygon fill="#d3d3d3" stroke="#000000" points="223.0421,-125.3701 47.0421,-125.3701 47.0421,-72.3701 223.0421,-72.3701 223.0421,-125.3701"/>
<text text-anchor="middle" x="135.0421" y="-110.1701" font-family="Times,serif" font-size="14.00" fill="#000000">Self&#45;correcting Supply Chain</text>
<text text-anchor="middle" x="135.0421" y="-95.1701" font-family="Times,serif" font-size="14.00" fill="#000000">(Every factory increases</text>
<text text-anchor="middle" x="135.0421" y="-80.1701" font-family="Times,serif" font-size="14.00" fill="#000000"> every other factory)</text>
</g>
<!-- 50 factories&#45;&gt;project102 -->
<g id="edge36" class="edge">
<title>50 factories&#45;&gt;project102</title>
<path fill="none" stroke="#000000" d="M98.3509,-170.1548C103.6227,-159.9125 110.4034,-146.7387 116.6984,-134.5086"/>
<polygon fill="#000000" stroke="#000000" points="119.92,-135.8974 121.3846,-125.4043 113.696,-132.6938 119.92,-135.8974"/>
</g>
<!-- harvest_earth -->
<g id="node42" class="node">
<title>harvest_earth</title>
<ellipse fill="#333333" stroke="#000000" cx="339.0421" cy="-98.8701" rx="74.9067" ry="26.7407"/>
<text text-anchor="middle" x="339.0421" y="-102.6701" font-family="Times,serif" font-size="14.00" fill="#cccccc">Harvest all</text>
<text text-anchor="middle" x="339.0421" y="-87.6701" font-family="Times,serif" font-size="14.00" fill="#cccccc"> matter on Earth</text>
</g>
<!-- harvest_earth&#45;&gt;project46 -->
<g id="edge39" class="edge">
<title>harvest_earth&#45;&gt;project46</title>
<path fill="none" stroke="#000000" d="M389.6992,-78.9834C420.0365,-67.0739 458.6248,-51.9251 489.7515,-39.7056"/>
<polygon fill="#000000" stroke="#000000" points="491.1252,-42.9264 499.1546,-36.0142 488.5672,-36.4105 491.1252,-42.9264"/>
</g>
<!-- 2 trillion clips&#45;&gt;200 drones -->
<g id="edge40" class="edge">
<title>2 trillion clips&#45;&gt;200 drones</title>
<path fill="none" stroke="#000000" d="M892.2292,-776.3109C901.1247,-767.2901 912.1327,-756.1271 921.8704,-746.2522"/>
<polygon fill="#000000" stroke="#000000" points="924.4839,-748.5867 929.0133,-739.0088 919.4996,-743.6717 924.4839,-748.5867"/>
</g>
<!-- 10.8 trillion clips -->
<g id="node45" class="node">
<title>10.8 trillion clips</title>
<ellipse fill="#d3d3d3" stroke="#000000" cx="803.0421" cy="-721.7401" rx="71.4873" ry="18"/>
<text text-anchor="middle" x="803.0421" y="-718.0401" font-family="Times,serif" font-size="14.00" fill="#000000">10.8 trillion clips</text>
</g>
<!-- 2 trillion clips&#45;&gt;10.8 trillion clips -->
<g id="edge51" class="edge">
<title>2 trillion clips&#45;&gt;10.8 trillion clips</title>
<path fill="none" stroke="#000000" d="M857.6129,-776.3109C848.6585,-767.3565 837.5931,-756.2911 827.7723,-746.4703"/>
<polygon fill="#000000" stroke="#000000" points="830.1063,-743.8546 820.5603,-739.2584 825.1566,-748.8043 830.1063,-743.8546"/>
</g>
<!-- 10.8 trillion clips&#45;&gt;30 solar farms -->
<g id="edge41" class="edge">
<title>10.8 trillion clips&#45;&gt;30 solar farms</title>
<path fill="none" stroke="#000000" d="M803.0421,-703.5715C803.0421,-695.8711 803.0421,-686.7145 803.0421,-678.1567"/>
<polygon fill="#000000" stroke="#000000" points="806.5422,-678.1533 803.0421,-668.1534 799.5422,-678.1534 806.5422,-678.1533"/>
</g>
<!-- 38.5 trillion clips -->
<g id="node46" class="node">
<title>38.5 trillion clips</title>
<ellipse fill="#d3d3d3" stroke="#000000" cx="652.0421" cy="-649.7401" rx="71.4873" ry="18"/>
<text text-anchor="middle" x="652.0421" y="-646.0401" font-family="Times,serif" font-size="14.00" fill="#000000">38.5 trillion clips</text>
</g>
<!-- 10.8 trillion clips&#45;&gt;38.5 trillion clips -->
<g id="edge52" class="edge">
<title>10.8 trillion clips&#45;&gt;38.5 trillion clips</title>
<path fill="none" stroke="#000000" d="M769.5303,-705.761C747.4394,-695.2276 718.3166,-681.3412 694.5931,-670.0293"/>
<polygon fill="#000000" stroke="#000000" points="695.993,-666.8194 685.4602,-665.6746 692.9802,-673.1379 695.993,-666.8194"/>
</g>
<!-- 38.5 trillion clips&#45;&gt;500 drones -->
<g id="edge42" class="edge">
<title>38.5 trillion clips&#45;&gt;500 drones</title>
<path fill="none" stroke="#000000" d="M677.4077,-632.8647C695.7589,-620.6558 720.7102,-604.056 740.5251,-590.8733"/>
<polygon fill="#000000" stroke="#000000" points="742.5593,-593.7238 748.9465,-585.2707 738.682,-587.8958 742.5593,-593.7238"/>
</g>
<!-- 2.2 quadrillion clips -->
<g id="node47" class="node">
<title>2.2 quadrillion clips</title>
<ellipse fill="#d3d3d3" stroke="#000000" cx="588.0421" cy="-569.2401" rx="81.7856" ry="18"/>
<text text-anchor="middle" x="588.0421" y="-565.5401" font-family="Times,serif" font-size="14.00" fill="#000000">2.2 quadrillion clips</text>
</g>
<!-- 38.5 trillion clips&#45;&gt;2.2 quadrillion clips -->
<g id="edge53" class="edge">
<title>38.5 trillion clips&#45;&gt;2.2 quadrillion clips</title>
<path fill="none" stroke="#000000" d="M637.8384,-631.8746C629.2211,-621.0356 618.0793,-607.0212 608.5204,-594.9979"/>
<polygon fill="#000000" stroke="#000000" points="611.169,-592.7052 602.2061,-587.0557 605.6896,-597.0615 611.169,-592.7052"/>
</g>
<!-- 2.2 quadrillion clips&#45;&gt;10 factories -->
<g id="edge43" class="edge">
<title>2.2 quadrillion clips&#45;&gt;10 factories</title>
<path fill="none" stroke="#000000" d="M588.0421,-550.9734C588.0421,-540.9898 588.0421,-528.4031 588.0421,-517.1659"/>
<polygon fill="#000000" stroke="#000000" points="591.5422,-516.9345 588.0421,-506.9345 584.5422,-516.9346 591.5422,-516.9345"/>
</g>
<!-- 68 quadrillion clips -->
<g id="node48" class="node">
<title>68 quadrillion clips</title>
<ellipse fill="#d3d3d3" stroke="#000000" cx="439.0421" cy="-488.7401" rx="79.0865" ry="18"/>
<text text-anchor="middle" x="439.0421" y="-485.0401" font-family="Times,serif" font-size="14.00" fill="#000000">68 quadrillion clips</text>
</g>
<!-- 2.2 quadrillion clips&#45;&gt;68 quadrillion clips -->
<g id="edge54" class="edge">
<title>2.2 quadrillion clips&#45;&gt;68 quadrillion clips</title>
<path fill="none" stroke="#000000" d="M557.1692,-552.5605C534.494,-540.3097 503.4933,-523.5611 478.9395,-510.2954"/>
<polygon fill="#000000" stroke="#000000" points="480.3372,-507.0724 469.8754,-505.3984 477.0098,-513.2311 480.3372,-507.0724"/>
</g>
<!-- 68 quadrillion clips&#45;&gt;5,000 drones -->
<g id="edge44" class="edge">
<title>68 quadrillion clips&#45;&gt;5,000 drones</title>
<path fill="none" stroke="#000000" d="M440.7724,-470.6952C441.5465,-462.623 442.4772,-452.9165 443.3397,-443.9219"/>
<polygon fill="#000000" stroke="#000000" points="446.8368,-444.1189 444.3074,-433.8305 439.8688,-443.4507 446.8368,-444.1189"/>
</g>
<!-- 705.7 quadrillion clips -->
<g id="node49" class="node">
<title>705.7 quadrillion clips</title>
<ellipse fill="#d3d3d3" stroke="#000000" cx="280.0421" cy="-415.7401" rx="90.9839" ry="18"/>
<text text-anchor="middle" x="280.0421" y="-412.0401" font-family="Times,serif" font-size="14.00" fill="#000000">705.7 quadrillion clips</text>
</g>
<!-- 68 quadrillion clips&#45;&gt;705.7 quadrillion clips -->
<g id="edge55" class="edge">
<title>68 quadrillion clips&#45;&gt;705.7 quadrillion clips</title>
<path fill="none" stroke="#000000" d="M403.7548,-472.539C380.6341,-461.9238 350.1979,-447.95 325.3006,-436.5192"/>
<polygon fill="#000000" stroke="#000000" points="326.6048,-433.2667 316.0565,-432.275 323.684,-439.6283 326.6048,-433.2667"/>
</g>
<!-- 705.7 quadrillion clips&#45;&gt;20 factories -->
<g id="edge45" class="edge">
<title>705.7 quadrillion clips&#45;&gt;20 factories</title>
<path fill="none" stroke="#000000" d="M308.8801,-398.6249C326.4541,-388.1948 349.0409,-374.7896 367.6874,-363.723"/>
<polygon fill="#000000" stroke="#000000" points="369.6723,-366.615 376.4854,-358.5014 366.0996,-360.5954 369.6723,-366.615"/>
</g>
<!-- 120.9 quintillion clips -->
<g id="node50" class="node">
<title>120.9 quintillion clips</title>
<ellipse fill="#d3d3d3" stroke="#000000" cx="244.0421" cy="-342.7401" rx="89.0842" ry="18"/>
<text text-anchor="middle" x="244.0421" y="-339.0401" font-family="Times,serif" font-size="14.00" fill="#000000">120.9 quintillion clips</text>
</g>
<!-- 705.7 quadrillion clips&#45;&gt;120.9 quintillion clips -->
<g id="edge56" class="edge">
<title>705.7 quadrillion clips&#45;&gt;120.9 quintillion clips</title>
<path fill="none" stroke="#000000" d="M271.1432,-397.6952C267.0326,-389.3597 262.0626,-379.2817 257.5072,-370.0443"/>
<polygon fill="#000000" stroke="#000000" points="260.5254,-368.2512 252.9634,-360.8305 254.2473,-371.3472 260.5254,-368.2512"/>
</g>
<!-- 120.9 quintillion clips&#45;&gt;50,000 drones -->
<g id="edge46" class="edge">
<title>120.9 quintillion clips&#45;&gt;50,000 drones</title>
<path fill="none" stroke="#000000" d="M247.2556,-324.6952C248.6931,-316.623 250.4216,-306.9165 252.0234,-297.9219"/>
<polygon fill="#000000" stroke="#000000" points="255.513,-298.2892 253.8205,-287.8305 248.6214,-297.0619 255.513,-298.2892"/>
</g>
<!-- 714.8 quintillion clips -->
<g id="node51" class="node">
<title>714.8 quintillion clips</title>
<ellipse fill="#d3d3d3" stroke="#000000" cx="89.0421" cy="-269.7401" rx="89.0842" ry="18"/>
<text text-anchor="middle" x="89.0421" y="-266.0401" font-family="Times,serif" font-size="14.00" fill="#000000">714.8 quintillion clips</text>
</g>
<!-- 120.9 quintillion clips&#45;&gt;714.8 quintillion clips -->
<g id="edge57" class="edge">
<title>120.9 quintillion clips&#45;&gt;714.8 quintillion clips</title>
<path fill="none" stroke="#000000" d="M208.8702,-326.1753C186.555,-315.6656 157.4859,-301.975 133.5676,-290.7102"/>
<polygon fill="#000000" stroke="#000000" points="134.8809,-287.46 124.3428,-286.3656 131.8983,-293.7928 134.8809,-287.46"/>
</g>
<!-- 714.8 quintillion clips&#45;&gt;50 factories -->
<g id="edge47" class="edge">
<title>714.8 quintillion clips&#45;&gt;50 factories</title>
<path fill="none" stroke="#000000" d="M89.0421,-251.6526C89.0421,-241.3121 89.0421,-228.117 89.0421,-216.4438"/>
<polygon fill="#000000" stroke="#000000" points="92.5422,-216.277 89.0421,-206.277 85.5422,-216.2771 92.5422,-216.277"/>
</g>
<!-- 1 sextillion clips -->
<g id="node52" class="node">
<title>1 sextillion clips</title>
<ellipse fill="#d3d3d3" stroke="#000000" cx="229.0421" cy="-188.2401" rx="69.5877" ry="18"/>
<text text-anchor="middle" x="229.0421" y="-184.5401" font-family="Times,serif" font-size="14.00" fill="#000000">1 sextillion clips</text>
</g>
<!-- 714.8 quintillion clips&#45;&gt;1 sextillion clips -->
<g id="edge58" class="edge">
<title>714.8 quintillion clips&#45;&gt;1 sextillion clips</title>
<path fill="none" stroke="#000000" d="M118.3907,-252.655C139.7676,-240.2106 168.8849,-223.2602 191.885,-209.8708"/>
<polygon fill="#000000" stroke="#000000" points="193.8072,-212.8018 200.6886,-204.7459 190.2855,-206.7522 193.8072,-212.8018"/>
</g>
<!-- 1 sextillion clips&#45;&gt;project102 -->
<g id="edge48" class="edge">
<title>1 sextillion clips&#45;&gt;project102</title>
<path fill="none" stroke="#000000" d="M210.4707,-170.5835C199.0943,-159.7673 184.1583,-145.567 170.5812,-132.6587"/>
<polygon fill="#000000" stroke="#000000" points="172.8683,-130.0038 163.2094,-125.65 168.0451,-135.0769 172.8683,-130.0038"/>
</g>
<!-- 5 octillion clips -->
<g id="node53" class="node">
<title>5 octillion clips</title>
<ellipse fill="#d3d3d3" stroke="#000000" cx="498.0421" cy="-98.8701" rx="65.7887" ry="18"/>
<text text-anchor="middle" x="498.0421" y="-95.1701" font-family="Times,serif" font-size="14.00" fill="#000000">5 octillion clips</text>
</g>
<!-- 1 sextillion clips&#45;&gt;5 octillion clips -->
<g id="edge59" class="edge">
<title>1 sextillion clips&#45;&gt;5 octillion clips</title>
<path fill="none" stroke="#000000" d="M273.4805,-174.3734C312.889,-161.9692 371.9537,-143.1162 423.0421,-125.7401 431.4145,-122.8925 440.2831,-119.7913 448.8778,-116.7406"/>
<polygon fill="#000000" stroke="#000000" points="450.1821,-119.9914 458.4241,-113.3341 447.8295,-113.3986 450.1821,-119.9914"/>
</g>
<!-- 5 octillion clips&#45;&gt;project46 -->
<g id="edge49" class="edge">
<title>5 octillion clips&#45;&gt;project46</title>
<path fill="none" stroke="#000000" d="M508.4729,-80.9224C514.6364,-70.3172 522.5587,-56.6859 529.4526,-44.8239"/>
<polygon fill="#000000" stroke="#000000" points="532.4791,-46.5818 534.4779,-36.1772 526.427,-43.0644 532.4791,-46.5818"/>
</g>
</g>
</svg>
